<?xml version="1.0" encoding="utf-8"?>
<svg id="svg" version="1.1" width="400" height="397.08029197080293" style="display: block;" xmlns="http://www.w3.org/2000/svg">
  <g id="svgg">
    <path id="path0" d="M 249.057 71.922 C 243.36 72.436 237.971 73.761 234.971 75.384 C 233.449 76.208 228.347 79.504 227.768 80.037 C 227.529 80.257 226.515 81.188 225.514 82.106 C 223.897 83.589 219.265 89.424 219.265 89.979 C 219.265 90.097 218.55 91.455 217.676 92.997 C 216.802 94.539 216.087 95.981 216.087 96.202 C 216.087 96.422 215.82 97.166 215.494 97.855 C 212.063 105.095 211.262 124.27 214.032 132.87 C 214.243 133.525 214.817 135.313 215.308 136.842 C 218.181 145.8 224.177 153.863 231.182 158.189 C 233.352 159.53 238.699 162.066 239.355 162.066 C 239.68 162.066 240.611 162.35 241.423 162.697 C 245.935 164.628 263.171 164.627 268.322 162.696 C 269.196 162.368 270.241 162.093 270.644 162.083 C 271.047 162.073 271.851 161.801 272.431 161.478 C 273.011 161.155 274.53 160.538 275.806 160.105 L 278.127 159.319 L 280.438 161.586 C 288.366 169.361 287.086 169.103 292.247 163.959 C 297.329 158.895 297.32 159.071 292.741 154.863 C 288.541 151.003 287.819 150.05 288.342 149.061 C 288.546 148.676 289.195 147.378 289.783 146.177 C 290.372 144.975 291.102 143.71 291.405 143.365 C 291.708 143.02 291.956 142.573 291.955 142.372 C 291.955 142.171 292.298 141.291 292.718 140.417 C 295.082 135.497 295.53 131.785 295.531 117.123 C 295.531 104.019 295.102 99.977 293.324 96.368 C 292.572 94.842 291.956 93.453 291.956 93.282 C 291.956 90.054 279.948 78.089 273.684 75.076 C 272.701 74.603 271.593 74.056 271.222 73.861 C 267.923 72.121 257.219 71.184 249.057 71.922 M 152.334 73.392 C 151.807 73.779 150.546 76.53 150.546 77.292 C 150.546 77.624 150.25 78.467 149.887 79.166 C 149.525 79.865 149.089 80.973 148.919 81.629 C 148.749 82.284 148.137 84.071 147.56 85.601 C 146.983 87.13 146.358 88.918 146.17 89.573 C 145.982 90.228 145.36 92.016 144.786 93.545 C 143.304 97.499 142.238 100.448 141.627 102.284 C 141.337 103.158 140.915 104.32 140.691 104.866 C 140.466 105.412 139.539 108.004 138.631 110.626 C 137.722 113.247 136.725 115.867 136.414 116.447 C 136.103 117.026 135.849 117.838 135.849 118.249 C 135.849 118.661 135.492 119.699 135.055 120.556 C 134.618 121.413 134.26 122.513 134.26 123 C 134.26 123.487 134.086 123.993 133.874 124.124 C 133.661 124.256 133.293 125.115 133.056 126.035 C 132.819 126.954 132.367 128.269 132.052 128.958 C 131.737 129.646 131.479 130.451 131.477 130.745 C 131.476 131.04 131.214 131.782 130.894 132.394 C 130.575 133.005 130.142 134.078 129.932 134.777 C 129.722 135.476 129.08 137.299 128.504 138.828 C 127.929 140.357 127.302 142.145 127.11 142.8 C 126.919 143.456 126.289 145.243 125.711 146.773 C 125.134 148.302 124.418 150.268 124.121 151.142 C 123.824 152.016 123.113 153.982 122.541 155.511 C 121.968 157.041 121.356 158.852 121.18 159.536 C 121.004 160.22 120.748 160.961 120.611 161.183 C 120.144 161.937 121.614 162.066 130.73 162.066 C 137.689 162.066 139.877 161.948 139.976 161.569 C 140.609 159.139 142.655 152.264 143.994 148.064 L 145.102 144.588 L 149.314 144.593 C 151.63 144.596 158.967 144.778 165.619 144.999 C 179.115 145.446 178.771 145.365 179.616 148.327 C 179.871 149.22 180.206 150.129 180.361 150.348 C 180.516 150.566 180.777 151.37 180.941 152.133 C 181.104 152.897 181.467 154.059 181.747 154.715 C 182.027 155.372 182.736 157.294 183.323 158.987 L 184.39 162.066 L 192.71 162.066 L 201.029 162.066 L 202.013 161.081 C 202.978 160.117 202.984 160.068 202.348 158.599 C 201.991 157.775 201.538 156.424 201.341 155.597 C 201.144 154.771 200.833 153.788 200.649 153.413 C 200.283 152.668 199.159 149.456 198.602 147.567 C 198.07 145.76 196.643 141.71 196.223 140.814 C 195.632 139.554 194.618 136.586 194.192 134.872 C 193.977 134.006 193.663 133.113 193.494 132.886 C 193.325 132.658 192.673 130.864 192.045 128.898 C 191.418 126.931 190.672 124.97 190.388 124.539 C 190.103 124.108 189.871 123.34 189.871 122.831 C 189.871 122.323 189.574 121.335 189.212 120.636 C 188.85 119.937 188.417 118.828 188.25 118.173 C 188.084 117.517 187.476 115.73 186.899 114.201 C 186.322 112.671 185.693 110.884 185.501 110.228 C 185.31 109.573 184.69 107.786 184.123 106.256 C 182.035 100.622 181.488 99.075 181.097 97.716 C 180.877 96.951 180.551 95.968 180.372 95.531 C 179.568 93.567 178.368 90.247 178.004 88.977 C 177.386 86.82 176.4 84.082 175.97 83.33 C 175.756 82.955 175.407 81.972 175.194 81.145 C 174.307 77.697 173.018 74.614 172.302 74.231 C 171.02 73.545 153.147 72.794 152.334 73.392 M 51.339 118.27 L 51.44 161.867 L 59.186 161.965 C 63.446 162.019 67.152 161.92 67.422 161.746 C 67.808 161.498 67.829 158.85 67.518 149.335 C 66.944 131.73 67.572 124.633 69.753 124.085 C 70.662 123.857 97.827 124.557 103.9 124.965 C 108.244 125.257 108.086 125.57 107.954 116.929 L 107.845 109.831 L 88.63 109.351 C 71.539 108.925 69.332 108.797 68.669 108.197 C 67.538 107.173 67.528 91.445 68.659 90.422 C 69.314 89.829 71.748 89.711 91.201 89.332 C 103.195 89.098 113.237 88.837 113.515 88.752 C 113.905 88.633 113.996 87.023 113.912 81.737 L 113.803 74.876 L 82.521 74.774 L 51.238 74.672 L 51.339 118.27 M 258.121 86.755 C 258.715 87.063 260.222 87.503 261.469 87.733 C 262.715 87.964 264.231 88.468 264.837 88.855 C 266.991 90.228 269.649 92.453 270.961 93.981 C 271.693 94.834 272.382 95.621 272.492 95.73 C 274.103 97.336 277.013 103.543 278.077 107.646 C 279.231 112.094 279.379 125.105 278.304 127.655 C 277.948 128.501 277.656 129.484 277.656 129.84 C 277.657 131.295 275.5 135.452 274.745 135.452 C 273.985 135.452 271.832 133.953 269.315 131.671 C 268.55 130.978 267.291 130.034 266.517 129.573 L 265.109 128.736 L 261.918 131.796 C 257.463 136.067 256.311 138.424 257.994 139.821 C 258.322 140.093 258.59 140.464 258.59 140.646 C 258.59 140.828 258.992 141.4 259.484 141.917 C 259.975 142.434 261.236 143.774 262.285 144.895 L 264.192 146.934 L 262.483 147.816 C 253.626 152.385 239.71 146.737 234.468 136.445 C 229.019 125.748 229.496 107.257 235.458 98.03 C 240.753 89.834 252.64 83.921 258.121 86.755 M 163.51 99.503 C 163.8 100.377 164.207 101.383 164.414 101.739 C 164.622 102.094 164.914 103.034 165.063 103.828 C 165.211 104.622 165.48 105.362 165.659 105.473 C 165.838 105.584 166.194 106.699 166.451 107.951 C 166.708 109.204 167.059 110.407 167.23 110.626 C 167.517 110.991 167.928 112.328 169.245 117.18 C 169.512 118.163 169.972 119.53 170.267 120.219 C 170.563 120.907 170.811 121.89 170.818 122.404 C 170.826 122.917 171.088 123.784 171.4 124.33 C 173.484 127.974 172.155 128.5 160.867 128.5 C 149.895 128.5 150.606 128.772 151.844 125.056 C 152.378 123.455 153.309 120.536 153.914 118.57 C 154.519 116.604 155.166 114.638 155.352 114.201 C 155.538 113.764 156.238 111.708 156.909 109.633 C 157.579 107.557 158.388 105.296 158.706 104.607 C 159.025 103.919 159.285 103.182 159.285 102.97 C 159.285 102.757 159.618 101.801 160.026 100.845 C 160.433 99.889 160.879 98.781 161.017 98.383 C 161.47 97.077 162.921 97.729 163.51 99.503" stroke="none" fill="#ffffff" fill-rule="evenodd"/>
    <path id="path1" d="M 70.308 0.397 C 70.308 0.651 66.696 0.796 60.278 0.8 C 49.817 0.806 48.461 0.924 48.461 1.834 C 48.461 2.245 47.812 2.383 45.879 2.383 C 43.849 2.383 43.297 2.511 43.297 2.979 C 43.297 3.347 42.923 3.575 42.319 3.575 C 41.782 3.575 41.013 3.928 40.61 4.36 C 39.991 5.025 39.064 5.39 37.637 5.532 C 37.473 5.548 37.383 5.769 37.438 6.022 C 37.493 6.276 37.09 6.605 36.544 6.753 C 35.998 6.901 35.596 7.229 35.65 7.483 C 35.705 7.737 35.616 7.923 35.452 7.897 C 34.225 7.704 33.266 8.045 33.084 8.739 C 32.97 9.176 32.58 9.533 32.217 9.533 C 31.854 9.533 31.251 9.891 30.877 10.328 C 30.503 10.765 29.837 11.122 29.398 11.122 C 28.953 11.122 28.6 11.386 28.6 11.718 C 28.6 12.046 28.315 12.314 27.967 12.314 C 27.619 12.314 27.24 12.671 27.126 13.108 C 27.012 13.545 26.737 13.903 26.515 13.903 C 26.293 13.903 25.822 14.235 25.469 14.64 C 25.115 15.046 24.424 15.505 23.932 15.66 C 23.441 15.815 23.039 16.198 23.039 16.511 C 23.039 16.824 22.844 17.08 22.606 17.08 C 21.993 17.08 19.861 19.162 19.861 19.76 C 19.861 20.034 19.652 20.214 19.397 20.159 C 19.142 20.104 18.717 20.473 18.454 20.978 C 18.191 21.484 17.863 21.886 17.726 21.872 C 17.59 21.858 17.433 21.973 17.378 22.127 C 17.324 22.281 16.877 22.809 16.385 23.301 C 15.894 23.792 15.492 24.56 15.492 25.007 C 15.492 25.554 15.233 25.819 14.697 25.819 C 14.26 25.819 13.903 26.067 13.903 26.369 C 13.903 26.671 13.545 27.012 13.108 27.126 C 12.671 27.24 12.314 27.619 12.314 27.967 C 12.314 28.315 12.153 28.6 11.955 28.6 C 11.758 28.6 11.409 29.138 11.18 29.797 C 10.95 30.455 10.486 31.1 10.148 31.229 C 9.81 31.359 9.533 31.714 9.533 32.019 C 9.533 32.323 9.176 32.929 8.739 33.366 C 8.302 33.803 7.944 34.524 7.944 34.968 C 7.944 35.412 7.676 35.878 7.349 36.003 C 6.981 36.144 6.753 36.748 6.753 37.58 C 6.753 38.467 6.564 38.928 6.199 38.928 C 5.553 38.928 5.164 39.775 5.164 41.181 C 5.164 41.73 4.806 42.633 4.369 43.189 C 3.846 43.854 3.575 44.8 3.575 45.961 C 3.575 46.998 3.33 47.968 2.979 48.319 C 2.518 48.78 2.383 49.956 2.383 53.522 C 2.383 57.353 2.266 58.26 1.688 58.898 C 0.686 60.005 0.632 169.608 1.634 168.989 C 1.823 168.872 1.871 169.054 1.74 169.393 C 1.61 169.733 1.702 170.01 1.944 170.01 C 2.246 170.01 2.383 171.917 2.383 176.118 C 2.383 181.063 2.497 182.321 2.979 182.721 C 3.392 183.064 3.575 183.976 3.575 185.695 C 3.575 187.573 3.768 188.42 4.369 189.185 C 4.852 189.798 5.164 190.796 5.164 191.725 C 5.164 192.825 5.387 193.394 5.958 193.751 C 6.454 194.061 6.753 194.677 6.753 195.393 C 6.753 196.045 7.009 196.637 7.349 196.767 C 7.676 196.893 7.944 197.465 7.944 198.039 C 7.944 198.747 8.199 199.148 8.739 199.289 C 9.309 199.438 9.533 199.831 9.533 200.679 C 9.533 201.528 9.758 201.921 10.328 202.07 C 10.767 202.185 11.122 202.611 11.122 203.025 C 11.122 203.437 11.39 203.774 11.718 203.774 C 12.046 203.774 12.314 204.109 12.314 204.519 C 12.314 204.93 12.601 205.503 12.951 205.794 C 13.301 206.085 13.744 206.732 13.934 207.233 C 14.125 207.733 14.553 208.143 14.886 208.143 C 15.219 208.143 15.492 208.417 15.492 208.751 C 15.492 209.086 15.76 209.462 16.087 209.588 C 16.415 209.714 16.683 210.066 16.683 210.37 C 16.683 210.675 17.041 210.924 17.478 210.924 C 18.007 210.924 18.272 211.188 18.272 211.718 C 18.272 212.231 18.537 212.512 19.02 212.512 C 19.434 212.512 19.861 212.867 19.976 213.307 C 20.09 213.744 20.469 214.101 20.817 214.101 C 21.165 214.101 21.45 214.369 21.45 214.697 C 21.45 215.025 21.718 215.293 22.046 215.293 C 22.377 215.293 22.642 215.646 22.642 216.087 C 22.642 216.617 22.906 216.882 23.436 216.882 C 23.966 216.882 24.23 217.147 24.23 217.676 C 24.23 218.206 24.495 218.471 25.025 218.471 C 25.466 218.471 25.819 218.736 25.819 219.067 C 25.819 219.394 26.087 219.662 26.415 219.662 C 26.743 219.662 27.011 219.936 27.011 220.271 C 27.011 220.605 27.324 220.994 27.706 221.134 C 28.088 221.275 28.536 221.613 28.701 221.885 C 28.867 222.158 29.537 222.498 30.191 222.642 C 30.845 222.786 31.38 223.157 31.38 223.468 C 31.38 223.808 31.783 224.032 32.397 224.032 C 32.956 224.032 33.332 224.166 33.233 224.33 C 33.063 224.611 34.217 225.931 34.449 225.72 C 34.833 225.37 36.147 225.718 36.147 226.17 C 36.147 226.774 37.327 227.196 39.039 227.204 C 39.651 227.207 40.246 227.476 40.373 227.805 C 40.514 228.173 41.118 228.401 41.949 228.401 C 42.767 228.401 43.609 228.713 44.091 229.196 C 44.653 229.758 45.415 229.99 46.697 229.99 C 47.739 229.99 48.409 230.15 48.274 230.367 C 47.883 231 49.488 231.579 51.636 231.579 C 52.755 231.579 53.573 231.739 53.452 231.935 C 53.119 232.472 54.247 232.771 56.613 232.771 C 57.793 232.771 58.868 232.975 59.025 233.229 C 59.217 233.54 59.129 233.58 58.751 233.352 C 58.275 233.065 58.274 233.115 58.738 233.687 C 59.18 234.232 59.989 234.359 63.012 234.359 C 66.249 234.359 66.83 234.464 67.421 235.154 C 67.795 235.591 68.407 235.948 68.781 235.948 C 69.402 235.948 69.464 236.725 69.498 244.826 C 69.518 249.709 69.696 254.267 69.894 254.955 C 70.113 255.719 70.108 256.207 69.883 256.207 C 69.68 256.207 69.513 256.564 69.513 257.001 C 69.513 257.438 69.749 257.795 70.037 257.795 C 70.426 257.795 70.572 258.681 70.608 261.254 C 70.638 263.501 70.527 264.51 70.289 264.134 C 70.055 263.764 69.923 265.415 69.923 268.719 C 69.923 272.295 70.045 273.7 70.32 273.287 C 70.597 272.872 70.685 273.746 70.612 276.163 C 70.542 278.471 70.352 279.637 70.045 279.639 C 69.26 279.645 69.321 321.302 70.107 321.603 C 70.498 321.753 70.705 322.368 70.705 323.379 L 70.705 324.926 L 72.89 324.926 C 74.81 324.926 75.074 324.829 75.074 324.131 C 75.074 323.601 75.339 323.337 75.869 323.337 C 76.306 323.337 76.663 323.105 76.663 322.823 C 76.663 322.54 77.244 322.136 77.954 321.925 C 78.664 321.714 79.201 321.319 79.146 321.048 C 79.088 320.762 79.461 320.556 80.04 320.556 C 80.768 320.556 81.033 320.344 81.033 319.762 C 81.033 319.313 81.298 318.967 81.641 318.967 C 81.976 318.967 82.352 318.699 82.478 318.371 C 82.604 318.044 82.956 317.776 83.26 317.776 C 83.564 317.776 83.813 317.418 83.813 316.981 C 83.813 316.488 84.078 316.187 84.512 316.187 C 84.897 316.187 85.434 315.829 85.707 315.392 C 85.98 314.955 86.389 314.598 86.615 314.598 C 86.842 314.598 87.457 314.196 87.983 313.704 C 89.559 312.231 90.115 311.817 90.523 311.817 C 90.735 311.817 91.023 311.46 91.162 311.023 C 91.301 310.586 91.67 310.228 91.983 310.228 C 92.296 310.228 92.552 309.981 92.552 309.679 C 92.552 309.377 92.91 309.036 93.347 308.922 C 93.784 308.807 94.141 308.429 94.141 308.081 C 94.141 307.713 94.473 307.448 94.935 307.448 C 95.465 307.448 95.73 307.183 95.73 306.653 C 95.73 306.212 95.995 305.859 96.326 305.859 C 96.653 305.859 96.922 305.591 96.922 305.263 C 96.922 304.932 97.275 304.667 97.716 304.667 C 98.153 304.667 98.51 304.489 98.51 304.27 C 98.51 304.052 98.734 303.918 99.007 303.972 C 99.28 304.027 99.459 303.848 99.404 303.575 C 99.35 303.302 99.571 303.078 99.897 303.078 C 100.223 303.078 100.713 302.721 100.986 302.284 C 101.259 301.847 101.776 301.49 102.135 301.49 C 102.494 301.49 102.885 301.114 103.005 300.655 C 103.125 300.196 103.401 299.931 103.619 300.065 C 103.836 300.199 104.129 299.949 104.268 299.509 C 104.408 299.069 104.778 298.709 105.091 298.709 C 105.404 298.709 105.66 298.352 105.66 297.915 C 105.66 297.385 105.925 297.12 106.455 297.12 C 106.984 297.12 107.249 296.855 107.249 296.326 C 107.249 295.884 107.514 295.531 107.845 295.531 C 108.531 295.531 109.773 294.389 110.147 293.416 C 110.373 292.826 111.174 292.545 112.145 292.714 C 112.325 292.745 112.359 292.587 112.221 292.363 C 112.082 292.139 112.126 291.956 112.318 291.956 C 112.51 291.956 113.268 291.42 114.002 290.765 C 114.736 290.109 115.483 289.573 115.662 289.573 C 115.842 289.573 115.988 289.305 115.988 288.977 C 115.988 288.646 116.341 288.381 116.783 288.381 C 117.312 288.381 117.577 288.117 117.577 287.587 C 117.577 287.057 117.842 286.792 118.371 286.792 C 118.813 286.792 119.166 286.528 119.166 286.197 C 119.166 285.869 119.434 285.601 119.762 285.601 C 120.093 285.601 120.357 285.248 120.357 284.806 C 120.357 284.369 120.611 284.012 120.922 284.012 C 121.232 284.012 122.208 283.297 123.091 282.423 C 123.974 281.549 124.971 280.834 125.307 280.834 C 125.643 280.834 125.919 280.664 125.919 280.455 C 125.919 279.97 127.824 278.054 128.306 278.054 C 128.507 278.054 128.865 277.691 129.102 277.248 C 129.339 276.805 129.715 276.555 129.937 276.692 C 130.16 276.83 130.44 276.566 130.56 276.107 C 130.68 275.649 131.013 275.273 131.301 275.273 C 131.588 275.273 131.937 274.916 132.075 274.479 C 132.214 274.042 132.584 273.684 132.897 273.684 C 133.21 273.684 133.466 273.416 133.466 273.088 C 133.466 272.757 133.819 272.493 134.26 272.493 C 134.79 272.493 135.055 272.228 135.055 271.698 C 135.055 271.186 135.319 270.904 135.8 270.904 C 136.211 270.904 136.792 270.601 137.091 270.232 C 137.561 269.652 137.554 269.607 137.041 269.903 C 136.713 270.092 136.899 269.781 137.455 269.213 C 138.01 268.645 138.932 268.062 139.503 267.919 C 140.074 267.776 140.635 267.298 140.75 266.858 C 140.873 266.388 141.146 266.172 141.41 266.336 C 141.676 266.5 141.95 266.273 142.079 265.78 C 142.203 265.305 142.619 264.945 143.045 264.945 C 143.457 264.945 143.793 264.677 143.793 264.35 C 143.793 264.022 144.078 263.754 144.426 263.754 C 144.775 263.754 145.153 263.396 145.267 262.959 C 145.381 262.522 145.722 262.165 146.024 262.165 C 146.327 262.165 146.574 261.807 146.574 261.37 C 146.574 260.841 146.839 260.576 147.368 260.576 C 147.81 260.576 148.163 260.311 148.163 259.98 C 148.163 259.652 148.399 259.384 148.687 259.384 C 149.273 259.384 150.657 257.924 151.056 256.884 C 151.281 256.296 152.05 256.01 153.017 256.156 C 153.174 256.179 153.493 255.843 153.726 255.408 C 153.959 254.973 154.421 254.618 154.754 254.618 C 155.087 254.618 155.242 254.427 155.098 254.194 C 154.954 253.961 155.205 253.673 155.657 253.555 C 156.109 253.437 156.585 253.002 156.717 252.589 C 156.848 252.175 157.301 251.837 157.723 251.837 C 158.145 251.837 158.491 251.569 158.491 251.241 C 158.491 250.914 158.759 250.645 159.086 250.645 C 159.417 250.645 159.682 250.292 159.682 249.851 C 159.682 249.321 159.947 249.057 160.477 249.057 C 161.006 249.057 161.271 248.792 161.271 248.262 C 161.271 247.733 161.536 247.468 162.066 247.468 C 162.595 247.468 162.86 247.203 162.86 246.673 C 162.86 246.232 163.125 245.879 163.456 245.879 C 163.784 245.879 164.052 245.611 164.052 245.283 C 164.052 244.955 164.328 244.687 164.666 244.687 C 165.003 244.687 165.73 244.237 166.28 243.687 C 166.83 243.136 167.435 242.781 167.624 242.898 C 167.812 243.014 168.081 242.75 168.221 242.31 C 168.36 241.87 168.82 241.509 169.242 241.509 C 169.664 241.509 170.01 241.241 170.01 240.914 C 170.01 240.586 170.295 240.318 170.643 240.318 C 170.991 240.318 171.369 239.96 171.484 239.523 C 171.598 239.086 171.955 238.729 172.278 238.729 C 172.601 238.729 172.958 238.371 173.073 237.934 C 173.187 237.498 173.528 237.14 173.83 237.14 C 174.132 237.14 174.379 236.872 174.379 236.544 C 174.379 236.213 174.732 235.948 175.174 235.948 C 175.703 235.948 175.968 235.684 175.968 235.154 C 175.968 234.365 176.248 234.359 217.577 234.316 C 266.339 234.264 268.275 234.217 265.541 233.14 C 265.104 232.967 270.12 232.814 276.687 232.799 C 286.539 232.775 288.762 232.669 289.398 232.187 C 289.822 231.867 290.973 231.596 291.956 231.586 C 294.329 231.562 295.531 231.21 295.531 230.54 C 295.531 230.138 296.121 229.99 297.716 229.99 C 299.614 229.99 299.901 229.889 299.901 229.218 C 299.901 228.595 300.224 228.423 301.589 228.325 C 302.679 228.246 303.242 228.027 303.178 227.706 C 303.123 227.433 303.213 227.231 303.376 227.257 C 304.394 227.417 305.459 227.106 306.256 226.415 C 306.76 225.978 307.459 225.621 307.81 225.621 C 308.161 225.621 308.672 225.263 308.945 224.826 C 309.228 224.373 309.871 224.032 310.443 224.032 C 310.994 224.032 311.548 223.764 311.674 223.436 C 311.799 223.108 312.129 222.84 312.407 222.84 C 312.685 222.84 313.157 222.538 313.457 222.168 C 313.927 221.589 313.92 221.543 313.406 221.835 C 313.051 222.036 312.944 222.027 313.141 221.811 C 313.482 221.439 313.671 221.386 314.949 221.301 C 315.36 221.274 315.79 220.894 315.905 220.457 C 316.019 220.02 316.397 219.662 316.745 219.662 C 317.093 219.662 317.378 219.394 317.378 219.067 C 317.378 218.736 317.731 218.471 318.173 218.471 C 318.702 218.471 318.967 218.206 318.967 217.676 C 318.967 217.239 319.214 216.882 319.516 216.882 C 319.818 216.882 320.801 216.146 321.701 215.246 C 322.601 214.347 323.337 213.364 323.337 213.062 C 323.337 212.76 323.694 212.512 324.131 212.512 C 324.661 212.512 324.926 212.248 324.926 211.718 C 324.926 211.277 325.19 210.924 325.521 210.924 C 325.849 210.924 326.117 210.655 326.117 210.328 C 326.117 210 326.39 209.732 326.723 209.732 C 327.056 209.732 327.5 209.28 327.71 208.729 C 327.92 208.177 328.362 207.622 328.693 207.494 C 329.024 207.367 329.295 206.855 329.295 206.356 C 329.295 205.856 329.563 205.345 329.891 205.219 C 330.218 205.093 330.487 204.728 330.487 204.409 C 330.487 204.089 330.844 203.714 331.281 203.575 C 331.828 203.401 332.075 202.974 332.075 202.204 C 332.075 201.42 332.313 201.024 332.87 200.878 C 333.478 200.719 333.664 200.336 333.664 199.243 C 333.664 198.239 333.841 197.815 334.26 197.815 C 334.672 197.815 334.856 197.401 334.856 196.471 C 334.856 195.477 335.056 195.075 335.624 194.927 C 336.184 194.78 336.426 194.311 336.518 193.192 C 336.601 192.175 336.821 191.695 337.17 191.768 C 337.459 191.828 337.59 191.706 337.461 191.497 C 337.332 191.288 337.408 191.005 337.63 190.868 C 337.852 190.731 338.034 189.933 338.034 189.096 C 338.034 188.127 338.245 187.492 338.614 187.35 C 339.049 187.183 339.223 186.252 339.309 183.633 C 339.372 181.711 339.583 180.199 339.777 180.272 C 340.629 180.594 340.802 178.751 340.808 169.315 C 340.814 160.33 340.881 159.285 341.459 159.285 C 341.948 159.285 341.998 159.159 341.667 158.759 C 341.347 158.374 341.361 158.103 341.717 157.746 C 342.608 156.856 342.405 70.778 341.509 69.411 C 340.906 68.489 340.814 67.29 340.808 60.292 C 340.805 55.776 340.633 51.972 340.417 51.639 C 340.205 51.311 340.027 51.221 340.02 51.44 C 339.969 53.112 339.236 50.113 339.232 48.211 C 339.227 46.539 339.039 45.623 338.63 45.283 C 338.3 45.009 338.034 44.143 338.034 43.344 C 338.034 42.329 337.797 41.751 337.239 41.403 C 336.799 41.128 336.445 40.477 336.445 39.941 C 336.445 39.409 336.263 38.862 336.041 38.725 C 335.819 38.588 335.74 38.309 335.866 38.106 C 335.992 37.902 335.828 37.736 335.502 37.736 C 335.15 37.736 334.858 37.291 334.783 36.643 C 334.714 36.043 334.471 35.583 334.243 35.623 C 334.016 35.662 333.787 35.139 333.735 34.461 C 333.682 33.765 333.299 32.987 332.858 32.678 C 332.428 32.376 332.075 31.693 332.075 31.159 C 332.075 30.453 331.859 30.189 331.281 30.189 C 330.766 30.189 330.487 29.924 330.487 29.437 C 330.487 29.023 330.218 28.582 329.891 28.456 C 329.563 28.33 329.295 27.758 329.295 27.185 C 329.295 26.476 329.04 26.076 328.5 25.934 C 328.061 25.819 327.706 25.393 327.706 24.978 C 327.706 24.495 327.425 24.23 326.912 24.23 C 326.382 24.23 326.117 23.966 326.117 23.436 C 326.117 22.995 325.852 22.642 325.521 22.642 C 325.194 22.642 324.926 22.471 324.926 22.262 C 324.926 21.669 322.968 19.861 322.326 19.861 C 322.008 19.861 321.748 19.503 321.748 19.067 C 321.748 18.625 321.483 18.272 321.152 18.272 C 320.824 18.272 320.556 18.004 320.556 17.676 C 320.556 17.345 320.203 17.08 319.762 17.08 C 319.232 17.08 318.967 16.816 318.967 16.286 C 318.967 15.756 318.702 15.492 318.173 15.492 C 317.726 15.492 317.378 15.227 317.378 14.886 C 317.378 14.553 316.921 14.106 316.361 13.894 C 315.802 13.681 315.45 13.337 315.578 13.129 C 315.706 12.921 315.181 12.633 314.41 12.488 C 313.606 12.337 313.009 11.991 313.009 11.674 C 313.009 11.37 312.651 11.122 312.214 11.122 C 311.778 11.122 311.42 10.862 311.42 10.544 C 311.42 10.198 310.862 9.862 310.03 9.706 C 309.265 9.562 308.64 9.216 308.64 8.936 C 308.64 8.368 307.777 7.944 306.621 7.944 C 306.202 7.944 305.859 7.676 305.859 7.349 C 305.859 6.941 305.45 6.753 304.564 6.753 C 303.7 6.753 303.105 6.489 302.773 5.958 C 302.429 5.406 301.847 5.164 300.867 5.164 C 300.026 5.164 299.556 5.003 299.703 4.766 C 300.009 4.27 298.254 3.575 296.697 3.575 C 295.926 3.575 295.531 3.373 295.531 2.979 C 295.531 2.522 295.024 2.383 293.347 2.383 C 291.498 2.383 291.162 2.272 291.162 1.66 C 291.162 1.064 290.795 0.92 289.076 0.843 C 287.929 0.792 286.931 0.582 286.859 0.375 C 286.671 -0.155 95.73 -0.133 95.73 0.397 C 95.73 0.616 95.372 0.794 94.935 0.794 C 94.499 0.794 94.141 0.616 94.141 0.397 C 94.141 0.179 93.784 0 93.347 0 C 92.91 0 92.552 0.179 92.552 0.397 C 92.552 0.616 91.927 0.794 91.162 0.794 C 90.397 0.794 89.772 0.616 89.772 0.397 C 89.772 0.156 88.05 0 85.402 0 C 82.754 0 81.033 0.156 81.033 0.397 C 81.033 0.616 80.675 0.794 80.238 0.794 C 79.801 0.794 79.444 0.616 79.444 0.397 C 79.444 0.179 79.176 0 78.848 0 C 78.52 0 78.252 0.179 78.252 0.397 C 78.252 0.616 77.895 0.794 77.458 0.794 C 77.021 0.794 76.663 0.616 76.663 0.397 C 76.663 0.166 75.339 0 73.486 0 C 71.632 0 70.308 0.166 70.308 0.397 M 361.47 92.87 C 361.47 111.709 361.345 119.132 361.023 119.454 C 360.748 119.729 360.642 120.823 360.748 122.291 C 360.843 123.605 360.776 124.591 360.6 124.482 C 360.123 124.187 360.209 128.471 360.69 128.952 C 360.975 129.237 360.955 129.722 360.627 130.521 C 360.28 131.368 360.108 139.338 359.988 160.278 C 359.854 183.678 359.726 188.954 359.287 189.296 C 358.844 189.642 358.866 189.8 359.415 190.205 C 359.78 190.474 359.856 190.588 359.582 190.458 C 359.079 190.218 358.333 191.613 358.388 192.688 C 358.567 196.152 358.232 199.404 357.696 199.404 C 357.256 199.404 357.1 199.864 357.1 201.159 C 357.1 203.376 356.794 204.181 356.058 203.898 C 355.74 203.776 355.507 203.832 355.542 204.023 C 355.874 205.839 355.439 208.069 354.717 208.258 C 354.242 208.382 353.923 208.8 353.923 209.297 C 353.923 209.755 353.707 210.084 353.444 210.03 C 352.919 209.921 352.854 210.165 352.781 212.512 C 352.753 213.386 352.542 214.101 352.31 214.101 C 352.079 214.101 351.992 213.935 352.118 213.732 C 352.244 213.528 352.174 213.255 351.963 213.125 C 351.752 212.994 351.461 213.518 351.316 214.289 C 351.163 215.108 350.82 215.69 350.492 215.69 C 349.871 215.69 349.02 217.532 349.375 218.107 C 349.499 218.307 349.321 218.471 348.981 218.471 C 348.626 218.471 348.361 218.81 348.361 219.265 C 348.361 219.702 348.1 220.06 347.78 220.06 C 347.46 220.06 346.986 220.462 346.727 220.953 C 346.468 221.445 346.149 221.936 346.018 222.046 C 345.225 222.706 344.263 224.132 344.786 223.872 C 345.14 223.696 345.1 223.807 344.687 224.145 C 344.305 224.459 343.992 224.898 343.992 225.122 C 343.992 225.345 343.635 225.621 343.198 225.736 C 342.761 225.85 342.403 226.208 342.403 226.53 C 342.403 226.853 342.046 227.21 341.609 227.325 C 341.172 227.439 340.814 227.817 340.814 228.165 C 340.814 228.514 340.546 228.798 340.218 228.798 C 339.891 228.798 339.623 229.046 339.623 229.348 C 339.623 229.65 339.265 229.991 338.828 230.105 C 338.391 230.219 338.034 230.598 338.034 230.946 C 338.034 231.314 337.701 231.579 337.239 231.579 C 336.71 231.579 336.445 231.844 336.445 232.373 C 336.445 232.815 336.18 233.168 335.849 233.168 C 335.521 233.168 335.253 233.436 335.253 233.764 C 335.253 234.095 334.9 234.359 334.459 234.359 C 333.929 234.359 333.664 234.624 333.664 235.154 C 333.664 235.777 333.4 235.948 332.436 235.948 C 331.541 235.948 331.15 236.164 330.999 236.743 C 330.884 237.182 330.457 237.537 330.043 237.537 C 329.632 237.537 329.295 237.786 329.295 238.09 C 329.295 238.394 328.832 238.759 328.266 238.901 C 327.579 239.073 327.311 239.352 327.459 239.739 C 327.627 240.177 327.347 240.318 326.303 240.318 C 325.19 240.318 324.926 240.47 324.926 241.112 C 324.926 241.724 324.661 241.907 323.776 241.907 C 323.121 241.907 322.529 242.163 322.399 242.502 C 322.273 242.83 321.732 243.098 321.197 243.098 C 319.814 243.098 318.967 243.492 318.967 244.134 C 318.967 244.519 318.454 244.689 317.279 244.693 C 316.351 244.697 315.323 244.873 314.995 245.084 C 314.598 245.341 314.565 245.471 314.896 245.476 C 315.169 245.479 315.392 245.66 315.392 245.879 C 315.392 246.121 313.605 246.276 310.824 246.276 C 307.382 246.276 306.281 246.398 306.356 246.773 C 306.526 247.623 303.974 247.645 303.754 246.795 C 303.583 246.136 303.564 246.135 303.522 246.773 C 303.476 247.456 291.561 248.983 275.581 248.725 C 272.123 248.669 255.833 249.048 233.095 249.047 C 192.094 249.046 190.156 249.103 190.892 250.293 C 191.011 250.487 190.914 250.645 190.675 250.645 C 190.436 250.645 189.085 251.807 187.672 253.227 C 186.258 254.647 185.198 255.809 185.316 255.809 C 185.433 255.809 184.888 256.372 184.105 257.06 C 183.322 257.747 182.767 258.535 182.873 258.811 C 182.982 259.094 182.671 259.41 182.157 259.539 C 181.658 259.665 180.623 260.571 179.858 261.553 C 179.093 262.535 178.353 263.225 178.213 263.086 C 178.074 262.946 177.847 263.397 177.709 264.087 C 177.566 264.802 177.21 265.343 176.883 265.343 C 176.35 265.343 176.042 265.549 174.691 266.813 C 173.667 267.771 173.188 268.5 173.188 269.099 C 173.188 269.447 172.844 269.712 172.393 269.712 C 171.952 269.712 171.599 269.977 171.599 270.308 C 171.599 270.639 171.246 270.904 170.804 270.904 C 170.275 270.904 170.01 271.168 170.01 271.698 C 170.01 272.139 169.745 272.493 169.414 272.493 C 169.083 272.493 168.818 272.846 168.818 273.287 C 168.818 273.817 168.553 274.081 168.024 274.081 C 167.582 274.081 167.229 274.346 167.229 274.677 C 167.229 275.008 166.876 275.273 166.435 275.273 C 165.905 275.273 165.641 275.538 165.641 276.068 C 165.641 276.509 165.376 276.862 165.045 276.862 C 164.714 276.862 164.449 277.215 164.449 277.656 C 164.449 278.186 164.184 278.451 163.654 278.451 C 163.213 278.451 162.86 278.716 162.86 279.047 C 162.86 279.374 162.575 279.643 162.227 279.643 C 161.879 279.643 161.5 280 161.386 280.437 C 161.272 280.874 160.931 281.231 160.629 281.231 C 160.327 281.231 160.079 281.589 160.079 282.026 C 160.079 282.555 159.815 282.82 159.285 282.82 C 158.848 282.82 158.491 282.991 158.491 283.199 C 158.491 283.408 158.036 284.034 157.479 284.59 C 156.923 285.146 156.298 285.601 156.089 285.601 C 155.881 285.601 155.71 285.958 155.71 286.395 C 155.71 286.925 155.445 287.19 154.916 287.19 C 154.479 287.19 154.121 287.437 154.121 287.739 C 154.121 288.041 153.764 288.382 153.327 288.496 C 152.89 288.611 152.532 288.989 152.532 289.337 C 152.532 289.685 152.308 289.97 152.034 289.97 C 151.283 289.97 150.663 292.371 151.136 293.446 C 151.51 294.297 151.743 294.34 156.045 294.34 C 159.88 294.34 160.527 294.429 160.335 294.931 C 160.21 295.256 160.236 295.503 160.392 295.479 C 162.195 295.211 220.051 295.621 219.878 295.901 C 219.752 296.105 219.977 296.507 220.377 296.795 C 220.777 297.083 221.222 297.632 221.364 298.014 C 221.507 298.396 221.876 298.709 222.185 298.709 C 222.495 298.709 222.841 299.067 222.955 299.503 C 223.069 299.94 223.458 300.298 223.819 300.298 C 224.184 300.298 224.359 300.487 224.214 300.722 C 224.07 300.955 224.321 301.242 224.773 301.361 C 225.225 301.479 225.702 301.914 225.833 302.327 C 225.964 302.74 226.327 303.078 226.64 303.078 C 226.953 303.078 227.213 303.302 227.216 303.575 C 227.224 304.157 228.929 305.859 229.503 305.859 C 229.72 305.859 229.991 306.216 230.105 306.653 C 230.219 307.09 230.598 307.448 230.946 307.448 C 231.294 307.448 231.579 307.697 231.579 308.001 C 231.579 308.306 231.847 308.657 232.175 308.783 C 232.502 308.909 232.771 309.286 232.771 309.62 C 232.771 309.964 233.116 310.228 233.565 310.228 C 234.095 310.228 234.359 310.493 234.359 311.023 C 234.359 311.552 234.624 311.817 235.154 311.817 C 235.684 311.817 235.948 312.082 235.948 312.612 C 235.948 313.053 236.213 313.406 236.544 313.406 C 236.872 313.406 237.14 313.674 237.14 314.002 C 237.14 314.333 237.493 314.598 237.934 314.598 C 238.464 314.598 238.729 314.863 238.729 315.392 C 238.729 315.922 238.994 316.187 239.523 316.187 C 240.053 316.187 240.318 316.452 240.318 316.981 C 240.318 317.422 240.583 317.776 240.914 317.776 C 241.241 317.776 241.509 318.044 241.509 318.371 C 241.509 318.702 241.863 318.967 242.304 318.967 C 242.833 318.967 243.098 319.232 243.098 319.762 C 243.098 320.291 243.363 320.556 243.893 320.556 C 244.422 320.556 244.687 320.821 244.687 321.351 C 244.687 321.792 244.952 322.145 245.283 322.145 C 245.611 322.145 245.879 322.413 245.879 322.741 C 245.879 323.072 246.232 323.337 246.673 323.337 C 247.203 323.337 247.468 323.601 247.468 324.131 C 247.468 324.644 247.733 324.926 248.216 324.926 C 248.63 324.926 249.057 325.28 249.172 325.72 C 249.286 326.157 249.664 326.514 250.012 326.514 C 250.361 326.514 250.645 326.783 250.645 327.11 C 250.645 327.438 250.914 327.706 251.241 327.706 C 251.572 327.706 251.837 328.059 251.837 328.5 C 251.837 329.03 252.102 329.295 252.632 329.295 C 253.069 329.295 253.426 329.542 253.426 329.844 C 253.426 330.146 254.162 331.129 255.062 332.029 C 255.961 332.928 256.944 333.664 257.246 333.664 C 257.548 333.664 257.795 334 257.795 334.41 C 257.795 334.82 258.098 335.401 258.468 335.701 C 259.046 336.17 259.097 336.163 258.835 335.65 C 258.565 335.121 258.591 335.121 259.075 335.65 C 259.374 335.978 259.879 336.496 260.197 336.801 C 260.702 337.286 260.699 337.315 260.179 337.029 C 259.851 336.85 260.477 337.594 261.569 338.684 C 262.661 339.774 264.302 341.503 265.215 342.527 C 266.129 343.551 267.064 344.389 267.293 344.389 C 267.523 344.389 267.821 344.83 267.956 345.368 C 268.092 345.906 268.542 346.455 268.957 346.587 C 269.372 346.718 269.712 347.082 269.712 347.395 C 269.712 347.708 269.959 347.964 270.262 347.964 C 270.564 347.964 270.905 348.322 271.019 348.759 C 271.133 349.196 271.491 349.553 271.813 349.553 C 272.136 349.553 272.493 349.911 272.608 350.348 C 272.722 350.785 273.1 351.142 273.448 351.142 C 273.797 351.142 274.081 351.313 274.081 351.521 C 274.081 352.014 275.99 353.923 276.483 353.923 C 276.691 353.923 276.862 354.28 276.862 354.717 C 276.862 355.23 277.127 355.511 277.61 355.511 C 278.036 355.511 278.452 355.871 278.576 356.346 C 278.697 356.805 278.985 357.062 279.219 356.918 C 279.463 356.767 279.643 356.982 279.643 357.428 C 279.643 357.865 279.986 358.289 280.437 358.407 C 280.874 358.521 281.231 358.9 281.231 359.248 C 281.231 359.596 281.441 359.881 281.697 359.881 C 282.249 359.881 285.601 363.297 285.601 363.86 C 285.601 364.075 285.857 364.25 286.17 364.25 C 286.483 364.25 286.852 364.608 286.991 365.045 C 287.13 365.482 287.499 365.839 287.812 365.839 C 288.125 365.839 288.381 366.095 288.381 366.408 C 288.381 366.721 288.722 367.085 289.139 367.218 C 289.556 367.35 289.997 367.72 290.12 368.039 C 290.242 368.358 290.616 368.62 290.951 368.62 C 291.285 368.62 291.538 368.754 291.512 368.918 C 291.383 369.737 291.618 370.209 292.155 370.209 C 292.483 370.209 292.751 370.465 292.751 370.778 C 292.751 371.091 293.092 371.455 293.508 371.587 C 293.925 371.719 294.367 372.089 294.489 372.408 C 294.612 372.728 294.986 372.989 295.32 372.989 C 295.655 372.989 295.907 373.123 295.881 373.287 C 295.752 374.106 295.987 374.578 296.524 374.578 C 296.852 374.578 297.12 374.834 297.12 375.147 C 297.12 375.46 297.478 375.83 297.915 375.968 C 298.352 376.107 298.709 376.476 298.709 376.789 C 298.709 377.102 298.965 377.358 299.278 377.358 C 299.591 377.358 299.961 377.716 300.099 378.153 C 300.238 378.59 300.608 378.947 300.921 378.947 C 301.233 378.947 301.49 379.203 301.49 379.516 C 301.49 379.829 301.847 380.199 302.284 380.338 C 302.721 380.476 303.078 380.846 303.078 381.159 C 303.078 381.472 303.436 381.728 303.873 381.728 C 304.403 381.728 304.667 381.993 304.667 382.522 C 304.667 382.959 304.852 383.317 305.077 383.317 C 305.302 383.317 306.06 383.942 306.762 384.707 C 307.464 385.472 308.263 386.097 308.537 386.097 C 308.812 386.097 309.037 386.25 309.037 386.436 C 309.037 386.877 313.605 390.467 314.167 390.467 C 314.404 390.467 314.598 390.824 314.598 391.261 C 314.598 391.774 314.863 392.056 315.344 392.056 C 315.754 392.056 316.319 392.332 316.6 392.671 C 317.185 393.376 318.819 393.275 318.669 392.543 C 318.615 392.275 318.816 392.056 319.117 392.056 C 320.444 392.056 320.52 391.087 320.577 373.467 C 320.608 363.81 320.776 355.998 320.95 356.105 C 321.125 356.213 321.375 356.02 321.508 355.675 C 321.902 354.647 321.785 354.331 321.106 354.591 C 320.571 354.796 320.535 354.705 320.887 354.046 C 321.455 352.985 321.416 354.134 321.609 333.113 C 321.751 317.629 321.878 314.348 322.36 313.66 C 322.679 313.205 322.937 312.649 322.933 312.424 C 322.93 312.2 322.761 312.279 322.557 312.601 C 322.242 313.099 322.148 313.082 321.918 312.482 C 321.742 312.025 321.905 311.591 322.383 311.241 C 323.242 310.613 323.182 311.253 323.269 301.787 L 323.337 294.34 L 325.115 294.34 C 326.192 294.34 327.405 294.027 328.193 293.547 C 329.332 292.852 330.198 292.754 335.154 292.752 C 340.549 292.751 340.814 292.714 340.814 291.956 C 340.814 291.221 341.079 291.162 344.347 291.162 C 347.12 291.162 347.928 291.034 348.108 290.566 C 348.273 290.136 348.947 289.97 350.534 289.97 C 351.815 289.97 352.731 289.795 352.731 289.55 C 352.731 289.318 352.911 289.24 353.131 289.376 C 353.351 289.512 353.638 289.344 353.769 289.002 C 353.941 288.554 354.558 288.381 355.988 288.381 C 357.635 288.381 358.004 288.247 358.177 287.587 C 358.365 286.868 360.265 286.455 361.996 286.755 C 362.176 286.787 362.213 286.634 362.079 286.417 C 361.839 286.029 362.676 285.734 364.647 285.513 C 365.216 285.45 365.641 285.147 365.641 284.806 C 365.641 284.405 366.126 284.17 367.13 284.087 C 368.297 283.991 368.62 283.797 368.62 283.193 C 368.62 282.578 368.899 282.423 370.01 282.423 C 370.981 282.423 371.4 282.243 371.4 281.827 C 371.4 281.456 371.776 281.231 372.397 281.231 C 372.945 281.231 373.7 280.874 374.074 280.437 C 374.448 280 374.943 279.643 375.174 279.643 C 375.405 279.643 375.852 279.285 376.167 278.848 C 376.482 278.411 377.147 278.054 377.645 278.054 C 378.185 278.054 378.55 277.813 378.55 277.458 C 378.55 277.13 378.835 276.862 379.183 276.862 C 379.531 276.862 379.91 276.504 380.024 276.068 C 380.139 275.628 380.566 275.273 380.98 275.273 C 381.463 275.273 381.728 274.992 381.728 274.479 C 381.728 273.949 381.993 273.684 382.522 273.684 C 382.964 273.684 383.317 273.419 383.317 273.088 C 383.317 272.761 383.585 272.493 383.913 272.493 C 384.244 272.493 384.508 272.139 384.508 271.698 C 384.508 271.168 384.773 270.904 385.303 270.904 C 385.833 270.904 386.097 270.639 386.097 270.109 C 386.097 269.58 386.362 269.315 386.892 269.315 C 387.421 269.315 387.686 269.05 387.686 268.52 C 387.686 268.079 387.951 267.726 388.282 267.726 C 388.698 267.726 388.878 267.307 388.878 266.336 C 388.878 265.21 389.029 264.945 389.672 264.945 C 390.109 264.945 390.467 264.717 390.467 264.438 C 390.467 264.159 390.824 263.624 391.261 263.25 C 391.698 262.876 392.056 262.121 392.056 261.573 C 392.056 260.952 392.28 260.576 392.651 260.576 C 393.068 260.576 393.247 260.157 393.247 259.186 C 393.247 258.072 393.401 257.795 394.022 257.795 C 394.682 257.795 394.814 257.471 394.916 255.606 C 394.981 254.402 395.194 253.434 395.388 253.455 C 396.121 253.535 396.413 252.331 396.419 249.205 C 396.423 246.845 396.583 245.845 397.013 245.488 C 397.489 245.093 397.621 243.483 397.708 236.999 C 397.794 230.61 397.921 229.019 398.341 229.106 C 398.631 229.166 398.749 229.024 398.605 228.791 C 398.461 228.557 398.536 228.134 398.772 227.849 C 399.134 227.413 399.184 138.566 398.824 135.253 C 398.591 133.103 398.362 132.506 397.993 133.089 C 397.767 133.446 397.627 129.646 397.623 123.081 C 397.618 114.044 397.53 112.465 397.021 112.269 C 396.567 112.095 396.425 111.353 396.425 109.145 C 396.425 106.679 396.307 106.175 395.631 105.753 C 395.028 105.376 394.836 104.826 394.836 103.472 C 394.836 101.953 394.718 101.688 394.042 101.688 C 393.397 101.688 393.247 101.423 393.247 100.285 C 393.247 99.405 393.025 98.798 392.651 98.654 C 392.295 98.517 392.056 97.919 392.056 97.166 C 392.056 96.398 391.746 95.641 391.261 95.226 C 390.824 94.852 390.467 94.187 390.467 93.748 C 390.467 93.214 390.203 92.949 389.672 92.949 C 389.028 92.949 388.878 92.685 388.878 91.547 C 388.878 90.666 388.656 90.059 388.282 89.915 C 387.954 89.789 387.681 89.393 387.674 89.034 C 387.658 88.207 386.699 86.919 386.356 87.262 C 386.214 87.404 386.097 87.117 386.097 86.623 C 386.097 86.059 385.802 85.648 385.303 85.517 C 384.866 85.403 384.508 85.062 384.508 84.76 C 384.508 84.458 384.144 83.847 383.7 83.402 C 383.255 82.957 382.989 82.433 383.109 82.239 C 383.23 82.044 382.968 81.77 382.528 81.63 C 382.088 81.491 381.728 81.031 381.728 80.609 C 381.728 80.106 381.454 79.841 380.933 79.841 C 380.404 79.841 380.139 79.576 380.139 79.047 C 380.139 78.61 379.892 78.252 379.59 78.252 C 379.287 78.252 378.947 77.895 378.832 77.458 C 378.718 77.021 378.34 76.663 377.992 76.663 C 377.643 76.663 377.358 76.395 377.358 76.068 C 377.358 75.737 377.005 75.472 376.564 75.472 C 376.034 75.472 375.77 75.207 375.77 74.677 C 375.77 74.164 375.505 73.883 375.022 73.883 C 374.607 73.883 374.181 73.528 374.066 73.088 C 373.944 72.622 373.524 72.294 373.05 72.294 C 372.605 72.294 372.114 72.088 371.958 71.835 C 371.771 71.532 371.851 71.485 372.195 71.698 C 372.539 71.911 372.619 71.864 372.431 71.561 C 372.275 71.309 371.711 71.102 371.178 71.102 C 370.473 71.102 370.209 70.885 370.209 70.308 C 370.209 69.72 369.944 69.513 369.192 69.513 C 368.633 69.513 368.28 69.344 368.409 69.136 C 368.696 68.671 367.374 67.925 366.262 67.925 C 365.798 67.925 365.442 67.666 365.442 67.329 C 365.442 66.879 364.956 66.733 363.456 66.733 L 361.47 66.733 L 361.47 92.87 M 261.569 71.888 C 265.059 72.259 270.164 73.302 271.222 73.861 C 271.593 74.056 272.701 74.603 273.684 75.076 C 279.948 78.089 291.956 90.054 291.956 93.282 C 291.956 93.453 292.572 94.842 293.324 96.368 C 295.102 99.977 295.531 104.019 295.531 117.123 C 295.53 131.785 295.082 135.497 292.718 140.417 C 292.298 141.291 291.955 142.171 291.955 142.372 C 291.956 142.573 291.708 143.02 291.405 143.365 C 291.102 143.71 290.372 144.975 289.783 146.177 C 289.195 147.378 288.546 148.676 288.342 149.061 C 287.819 150.05 288.541 151.003 292.741 154.863 C 297.32 159.071 297.329 158.895 292.247 163.959 C 287.086 169.103 288.366 169.361 280.438 161.586 L 278.127 159.319 L 275.806 160.105 C 274.53 160.538 273.011 161.155 272.431 161.478 C 271.851 161.801 271.047 162.073 270.644 162.083 C 270.241 162.093 269.196 162.368 268.322 162.696 C 263.171 164.627 245.935 164.628 241.423 162.697 C 240.611 162.35 239.68 162.066 239.355 162.066 C 238.699 162.066 233.352 159.53 231.182 158.189 C 224.177 153.863 218.181 145.8 215.308 136.842 C 214.817 135.313 214.243 133.525 214.032 132.87 C 211.262 124.27 212.063 105.095 215.494 97.855 C 215.82 97.166 216.087 96.422 216.087 96.202 C 216.087 95.981 216.802 94.539 217.676 92.997 C 218.55 91.455 219.265 90.097 219.265 89.979 C 219.265 89.424 223.897 83.589 225.514 82.106 C 226.515 81.188 227.529 80.257 227.768 80.037 C 228.347 79.504 233.449 76.208 234.971 75.384 C 240.347 72.476 252.311 70.903 261.569 71.888 M 164.518 73.467 C 173.435 73.919 173.313 73.832 175.194 81.145 C 175.407 81.972 175.756 82.955 175.97 83.33 C 176.4 84.082 177.386 86.82 178.004 88.977 C 178.368 90.247 179.568 93.567 180.372 95.531 C 180.551 95.968 180.877 96.951 181.097 97.716 C 181.488 99.075 182.035 100.622 184.123 106.256 C 184.69 107.786 185.31 109.573 185.501 110.228 C 185.693 110.884 186.322 112.671 186.899 114.201 C 187.476 115.73 188.084 117.517 188.25 118.173 C 188.417 118.828 188.85 119.937 189.212 120.636 C 189.574 121.335 189.871 122.323 189.871 122.831 C 189.871 123.34 190.103 124.108 190.388 124.539 C 190.672 124.97 191.418 126.931 192.045 128.898 C 192.673 130.864 193.325 132.658 193.494 132.886 C 193.663 133.113 193.977 134.006 194.192 134.872 C 194.618 136.586 195.632 139.554 196.223 140.814 C 196.643 141.71 198.07 145.76 198.602 147.567 C 199.159 149.456 200.283 152.668 200.649 153.413 C 200.833 153.788 201.144 154.771 201.341 155.597 C 201.538 156.424 201.991 157.775 202.348 158.599 C 202.984 160.068 202.978 160.117 202.013 161.081 L 201.029 162.066 L 192.71 162.066 L 184.39 162.066 L 183.323 158.987 C 182.736 157.294 182.027 155.372 181.747 154.715 C 181.467 154.059 181.104 152.897 180.941 152.133 C 180.777 151.37 180.516 150.566 180.361 150.348 C 180.206 150.129 179.871 149.22 179.616 148.327 C 178.771 145.365 179.115 145.446 165.619 144.999 C 158.967 144.778 151.63 144.596 149.314 144.593 L 145.102 144.588 L 143.994 148.064 C 142.655 152.264 140.609 159.139 139.976 161.569 C 139.877 161.948 137.689 162.066 130.73 162.066 C 121.614 162.066 120.144 161.937 120.611 161.183 C 120.748 160.961 121.004 160.22 121.18 159.536 C 121.356 158.852 121.968 157.041 122.541 155.511 C 123.113 153.982 123.824 152.016 124.121 151.142 C 124.418 150.268 125.134 148.302 125.711 146.773 C 126.289 145.243 126.919 143.456 127.11 142.8 C 127.302 142.145 127.929 140.357 128.504 138.828 C 129.08 137.299 129.722 135.476 129.932 134.777 C 130.142 134.078 130.575 133.005 130.894 132.394 C 131.214 131.782 131.476 131.04 131.477 130.745 C 131.479 130.451 131.737 129.646 132.052 128.958 C 132.367 128.269 132.819 126.954 133.056 126.035 C 133.293 125.115 133.661 124.256 133.874 124.124 C 134.086 123.993 134.26 123.487 134.26 123 C 134.26 122.513 134.618 121.413 135.055 120.556 C 135.492 119.699 135.849 118.661 135.849 118.249 C 135.849 117.838 136.103 117.026 136.414 116.447 C 136.725 115.867 137.722 113.247 138.631 110.626 C 139.539 108.004 140.466 105.412 140.691 104.866 C 140.915 104.32 141.337 103.158 141.627 102.284 C 142.238 100.448 143.304 97.499 144.786 93.545 C 145.36 92.016 145.982 90.228 146.17 89.573 C 146.358 88.918 146.983 87.13 147.56 85.601 C 148.137 84.071 148.749 82.284 148.919 81.629 C 149.089 80.973 149.525 79.865 149.887 79.166 C 150.25 78.467 150.546 77.624 150.546 77.292 C 150.546 76.53 151.807 73.779 152.334 73.392 C 152.851 73.012 155.906 73.031 164.518 73.467 M 113.912 81.737 C 113.996 87.023 113.905 88.633 113.515 88.752 C 113.237 88.837 103.195 89.098 91.201 89.332 C 71.748 89.711 69.314 89.829 68.659 90.422 C 67.528 91.445 67.538 107.173 68.669 108.197 C 69.332 108.797 71.539 108.925 88.63 109.351 L 107.845 109.831 L 107.954 116.929 C 108.086 125.57 108.244 125.257 103.9 124.965 C 97.827 124.557 70.662 123.857 69.753 124.085 C 67.572 124.633 66.944 131.73 67.518 149.335 C 67.829 158.85 67.808 161.498 67.422 161.746 C 67.152 161.92 63.446 162.019 59.186 161.965 L 51.44 161.867 L 51.339 118.27 L 51.238 74.672 L 82.521 74.774 L 113.803 74.876 L 113.912 81.737 M 250.05 87.032 C 236.733 91.516 230.82 101.084 230.794 118.191 C 230.771 133.035 235.343 141.819 245.899 147.209 C 251.332 149.984 257.821 150.221 262.483 147.816 L 264.192 146.934 L 262.285 144.895 C 261.236 143.774 259.975 142.434 259.484 141.917 C 258.992 141.4 258.59 140.828 258.59 140.646 C 258.59 140.464 258.322 140.093 257.994 139.821 C 256.311 138.424 257.463 136.067 261.918 131.796 L 265.109 128.736 L 266.517 129.573 C 267.291 130.034 268.55 130.978 269.315 131.671 C 271.832 133.953 273.985 135.452 274.745 135.452 C 275.5 135.452 277.657 131.295 277.656 129.84 C 277.656 129.484 277.948 128.501 278.304 127.655 C 281.2 120.783 277.558 100.779 272.492 95.73 C 272.382 95.621 271.693 94.834 270.961 93.981 C 269.649 92.453 266.991 90.228 264.837 88.855 C 264.231 88.468 262.715 87.964 261.469 87.733 C 260.222 87.503 258.715 87.063 258.121 86.755 C 256.589 85.963 252.843 86.092 250.05 87.032 M 161.017 98.383 C 160.879 98.781 160.433 99.889 160.026 100.845 C 159.618 101.801 159.285 102.757 159.285 102.97 C 159.285 103.182 159.025 103.919 158.706 104.607 C 158.388 105.296 157.579 107.557 156.909 109.633 C 156.238 111.708 155.538 113.764 155.352 114.201 C 155.166 114.638 154.519 116.604 153.914 118.57 C 153.309 120.536 152.378 123.455 151.844 125.056 C 150.606 128.772 149.895 128.5 160.867 128.5 C 172.155 128.5 173.484 127.974 171.4 124.33 C 171.088 123.784 170.826 122.917 170.818 122.404 C 170.811 121.89 170.563 120.907 170.267 120.219 C 169.972 119.53 169.512 118.163 169.245 117.18 C 167.928 112.328 167.517 110.991 167.23 110.626 C 167.059 110.407 166.708 109.204 166.451 107.951 C 166.194 106.699 165.838 105.584 165.659 105.473 C 165.48 105.362 165.211 104.622 165.063 103.828 C 164.914 103.034 164.622 102.094 164.414 101.739 C 164.207 101.383 163.8 100.377 163.51 99.503 C 162.921 97.729 161.47 97.077 161.017 98.383" stroke="none" fill-rule="evenodd" style="fill: rgb(0, 167, 82);"/>
  </g>
</svg>