<?xml version="1.0" encoding="UTF-8" standalone="no"?>
<svg id="svg" xmlns="http://www.w3.org/2000/svg" display="block" height="397.08" width="400" version="1.1">
 <g id="svgg" fill-rule="evenodd">
  <path id="path0" fill="#fff" d="m249.06 71.922c-5.7 0.514-11.09 1.839-14.09 3.462-1.52 0.824-6.62 4.12-7.2 4.653-0.24 0.22-1.25 1.151-2.26 2.069-1.61 1.483-6.25 7.318-6.25 7.873 0 0.118-0.71 1.476-1.58 3.018-0.88 1.542-1.59 2.984-1.59 3.205 0 0.22-0.27 0.964-0.6 1.653-3.43 7.245-4.23 26.415-1.46 35.015 0.21 0.65 0.79 2.44 1.28 3.97 2.87 8.96 8.87 17.02 15.87 21.35 2.17 1.34 7.52 3.88 8.18 3.88 0.32 0 1.25 0.28 2.06 0.63 4.52 1.93 21.75 1.93 26.9 0 0.88-0.33 1.92-0.61 2.32-0.62 0.41-0.01 1.21-0.28 1.79-0.6s2.1-0.94 3.38-1.38l2.32-0.78 2.31 2.27c7.93 7.77 6.65 7.51 11.81 2.37 5.08-5.06 5.07-4.89 0.49-9.1-4.2-3.86-4.92-4.81-4.4-5.8 0.21-0.38 0.86-1.68 1.44-2.88 0.59-1.2 1.32-2.47 1.62-2.82 0.31-0.34 0.56-0.79 0.56-0.99s0.34-1.08 0.76-1.95c2.36-4.92 2.81-8.64 2.81-23.3 0-13.1-0.43-17.143-2.21-20.752-0.75-1.526-1.36-2.915-1.36-3.086 0-3.228-12.01-15.193-18.28-18.206-0.98-0.473-2.09-1.02-2.46-1.215-3.3-1.74-14-2.677-22.16-1.939m-96.73 1.47c-0.52 0.387-1.78 3.138-1.78 3.9 0 0.332-0.3 1.175-0.66 1.874-0.37 0.699-0.8 1.807-0.97 2.463-0.17 0.655-0.78 2.442-1.36 3.972-0.58 1.529-1.2 3.317-1.39 3.972s-0.81 2.443-1.38 3.972c-1.49 3.954-2.55 6.905-3.16 8.735-0.29 0.88-0.71 2.04-0.94 2.59-0.22 0.54-1.15 3.13-2.06 5.76-0.91 2.62-1.91 5.24-2.22 5.82s-0.56 1.39-0.56 1.8-0.36 1.45-0.79 2.31c-0.44 0.85-0.8 1.95-0.8 2.44s-0.17 0.99-0.39 1.12c-0.21 0.14-0.58 1-0.81 1.92-0.24 0.91-0.69 2.23-1.01 2.92-0.31 0.69-0.57 1.49-0.57 1.78 0 0.3-0.27 1.04-0.59 1.65-0.31 0.61-0.75 1.69-0.96 2.39s-0.85 2.52-1.43 4.05c-0.57 1.53-1.2 3.31-1.39 3.97s-0.82 2.44-1.4 3.97-1.29 3.5-1.59 4.37c-0.3 0.88-1.01 2.84-1.58 4.37s-1.18 3.34-1.36 4.03c-0.18 0.68-0.43 1.42-0.57 1.64-0.47 0.76 1 0.89 10.12 0.89 6.96 0 9.15-0.12 9.25-0.5 0.63-2.43 2.68-9.31 4.01-13.51l1.11-3.47h4.21c2.32 0.01 9.66 0.19 16.31 0.41 13.5 0.45 13.15 0.36 14 3.33 0.25 0.89 0.59 1.8 0.74 2.02 0.16 0.22 0.42 1.02 0.58 1.78 0.16 0.77 0.53 1.93 0.81 2.59 0.28 0.65 0.99 2.57 1.57 4.27l1.07 3.08h8.32 8.32l0.98-0.99c0.97-0.96 0.97-1.01 0.34-2.48-0.36-0.82-0.81-2.18-1.01-3-0.2-0.83-0.51-1.81-0.69-2.19-0.37-0.74-1.49-3.95-2.05-5.84-0.53-1.81-1.96-5.86-2.38-6.76-0.59-1.26-1.6-4.22-2.03-5.94-0.21-0.86-0.53-1.76-0.7-1.98-0.17-0.23-0.82-2.03-1.45-3.99-0.62-1.97-1.37-3.93-1.65-4.36-0.29-0.43-0.52-1.2-0.52-1.71s-0.3-1.49-0.66-2.19-0.79-1.81-0.96-2.47c-0.17-0.65-0.77-2.44-1.35-3.97s-1.21-3.32-1.4-3.97c-0.19-0.66-0.81-2.44-1.38-3.97-2.08-5.64-2.63-7.185-3.02-8.544-0.22-0.765-0.55-1.748-0.73-2.185-0.8-1.964-2-5.284-2.37-6.554-0.61-2.157-1.6-4.895-2.03-5.647-0.21-0.375-0.56-1.358-0.78-2.185-0.88-3.448-2.17-6.531-2.89-6.914-1.28-0.686-19.15-1.437-19.97-0.839m-100.99 44.878l0.101 43.6 7.746 0.09c4.26 0.06 7.966-0.04 8.236-0.21 0.386-0.25 0.407-2.9 0.096-12.41-0.574-17.61 0.054-24.71 2.235-25.26 0.909-0.22 28.074 0.48 34.147 0.88 4.34 0.3 4.19 0.61 4.05-8.03l-0.11-7.1-19.21-0.48c-17.091-0.43-19.298-0.55-19.961-1.15-1.131-1.03-1.141-16.755-0.01-17.778 0.655-0.593 3.089-0.711 22.542-1.09 11.999-0.234 22.039-0.495 22.319-0.58 0.38-0.119 0.48-1.729 0.39-7.015l-0.11-6.861-31.279-0.102-31.283-0.102 0.101 43.598m206.78-31.515c0.6 0.308 2.1 0.748 3.35 0.978 1.25 0.231 2.76 0.735 3.37 1.122 2.15 1.373 4.81 3.598 6.12 5.126 0.73 0.853 1.42 1.64 1.53 1.749 1.61 1.606 4.52 7.81 5.59 11.92 1.15 4.44 1.3 17.45 0.22 20.01-0.35 0.84-0.64 1.82-0.64 2.18 0 1.46-2.16 5.61-2.92 5.61s-2.91-1.5-5.42-3.78c-0.77-0.69-2.03-1.64-2.8-2.1l-1.41-0.83-3.19 3.06c-4.46 4.27-5.61 6.62-3.93 8.02 0.33 0.27 0.6 0.64 0.6 0.83 0 0.18 0.4 0.75 0.89 1.27 0.5 0.51 1.76 1.85 2.8 2.98l1.91 2.03-1.71 0.89c-8.85 4.56-22.77-1.08-28.01-11.38-5.45-10.69-4.97-29.18 0.99-38.41 5.29-8.196 17.18-14.109 22.66-11.275m-94.61 12.748c0.29 0.877 0.7 1.877 0.9 2.237 0.21 0.35 0.5 1.29 0.65 2.09 0.15 0.79 0.42 1.53 0.6 1.64s0.53 1.23 0.79 2.48 0.61 2.46 0.78 2.68c0.29 0.36 0.7 1.7 2.01 6.55 0.27 0.98 0.73 2.35 1.03 3.04 0.29 0.69 0.54 1.67 0.55 2.18 0.01 0.52 0.27 1.38 0.58 1.93 2.08 3.64 0.76 4.17-10.53 4.17-10.97 0-10.26 0.27-9.03-3.44 0.54-1.6 1.47-4.52 2.07-6.49 0.61-1.97 1.26-3.93 1.44-4.37 0.19-0.44 0.89-2.49 1.56-4.57 0.67-2.07 1.48-4.33 1.8-5.02 0.31-0.69 0.57-1.43 0.57-1.64s0.34-1.17 0.75-2.13c0.4-0.951 0.85-2.059 0.99-2.457 0.45-1.306 1.9-0.654 2.49 1.12"/>
  <path id="path1" d="m70.308 0.397c0 0.254-3.612 0.399-10.03 0.403-10.461 0.006-11.817 0.124-11.817 1.034 0 0.411-0.649 0.549-2.582 0.549-2.03 0-2.582 0.128-2.582 0.596 0 0.368-0.374 0.596-0.978 0.596-0.537 0-1.306 0.353-1.709 0.785-0.619 0.665-1.546 1.03-2.973 1.172-0.164 0.016-0.254 0.237-0.199 0.49 0.055 0.254-0.348 0.583-0.894 0.731s-0.948 0.476-0.894 0.73c0.055 0.254-0.034 0.44-0.198 0.414-1.227-0.193-2.186 0.148-2.368 0.842-0.114 0.437-0.504 0.794-0.867 0.794s-0.966 0.358-1.34 0.795-1.04 0.794-1.479 0.794c-0.445 0-0.798 0.264-0.798 0.596 0 0.328-0.285 0.596-0.633 0.596s-0.727 0.357-0.841 0.794-0.389 0.795-0.611 0.795-0.693 0.332-1.046 0.737c-0.354 0.406-1.045 0.865-1.537 1.02-0.491 0.155-0.893 0.538-0.893 0.851s-0.195 0.569-0.433 0.569c-0.613 0-2.745 2.082-2.745 2.68 0 0.274-0.209 0.454-0.464 0.399s-0.68 0.314-0.943 0.819c-0.263 0.506-0.591 0.908-0.728 0.894-0.136-0.014-0.293 0.101-0.348 0.255-0.054 0.154-0.501 0.682-0.993 1.174-0.491 0.491-0.893 1.259-0.893 1.706 0 0.547-0.259 0.812-0.795 0.812-0.437 0-0.794 0.248-0.794 0.55s-0.358 0.643-0.795 0.757-0.794 0.493-0.794 0.841-0.161 0.633-0.359 0.633c-0.197 0-0.546 0.538-0.775 1.197-0.23 0.658-0.694 1.303-1.032 1.432-0.338 0.13-0.615 0.485-0.615 0.79 0 0.304-0.357 0.91-0.794 1.347s-0.795 1.158-0.795 1.602-0.268 0.91-0.595 1.035c-0.368 0.141-0.596 0.745-0.596 1.577 0 0.887-0.189 1.348-0.554 1.348-0.646 0-1.035 0.847-1.035 2.253 0 0.549-0.358 1.452-0.795 2.008-0.523 0.665-0.794 1.611-0.794 2.772 0 1.037-0.245 2.007-0.596 2.358-0.461 0.461-0.596 1.637-0.596 5.203 0 3.831-0.117 4.738-0.695 5.376-1.002 1.107-1.056 110.71-0.054 110.09 0.189-0.12 0.237 0.06 0.106 0.4-0.13 0.34-0.038 0.62 0.204 0.62 0.302 0 0.439 1.91 0.439 6.11 0 4.94 0.114 6.2 0.596 6.6 0.413 0.34 0.596 1.26 0.596 2.98 0 1.87 0.193 2.72 0.794 3.48 0.483 0.62 0.795 1.62 0.795 2.54 0 1.1 0.223 1.67 0.794 2.03 0.496 0.31 0.795 0.93 0.795 1.64 0 0.65 0.256 1.25 0.596 1.38 0.327 0.12 0.595 0.69 0.595 1.27 0 0.71 0.255 1.11 0.795 1.25 0.57 0.15 0.794 0.54 0.794 1.39s0.225 1.24 0.795 1.39c0.439 0.11 0.794 0.54 0.794 0.95 0 0.42 0.268 0.75 0.596 0.75s0.596 0.34 0.596 0.75 0.287 0.98 0.637 1.27 0.793 0.94 0.983 1.44c0.191 0.5 0.619 0.91 0.952 0.91s0.606 0.28 0.606 0.61c0 0.34 0.268 0.71 0.595 0.84 0.328 0.12 0.596 0.48 0.596 0.78 0 0.31 0.358 0.55 0.795 0.55 0.529 0 0.794 0.27 0.794 0.8 0 0.51 0.265 0.79 0.748 0.79 0.414 0 0.841 0.36 0.956 0.8 0.114 0.43 0.493 0.79 0.841 0.79s0.633 0.27 0.633 0.6c0 0.32 0.268 0.59 0.596 0.59 0.331 0 0.596 0.36 0.596 0.8 0 0.53 0.264 0.79 0.794 0.79s0.794 0.27 0.794 0.8 0.265 0.79 0.795 0.79c0.441 0 0.794 0.27 0.794 0.6 0 0.32 0.268 0.59 0.596 0.59s0.596 0.28 0.596 0.61 0.313 0.72 0.695 0.86c0.382 0.15 0.83 0.48 0.995 0.75 0.166 0.28 0.836 0.62 1.49 0.76 0.654 0.15 1.189 0.52 1.189 0.83 0 0.34 0.403 0.56 1.017 0.56 0.559 0 0.935 0.14 0.836 0.3-0.17 0.28 0.984 1.6 1.216 1.39 0.384-0.35 1.698 0 1.698 0.45 0 0.6 1.18 1.03 2.892 1.03 0.612 0.01 1.207 0.28 1.334 0.6 0.141 0.37 0.745 0.6 1.576 0.6 0.818 0 1.66 0.31 2.142 0.8 0.562 0.56 1.324 0.79 2.606 0.79 1.042 0 1.712 0.16 1.577 0.38-0.391 0.63 1.214 1.21 3.362 1.21 1.119 0 1.937 0.16 1.816 0.36-0.333 0.53 0.795 0.83 3.161 0.83 1.18 0 2.255 0.21 2.412 0.46 0.192 0.31 0.104 0.35-0.274 0.12-0.476-0.29-0.477-0.23-0.013 0.34 0.442 0.54 1.251 0.67 4.274 0.67 3.237 0 3.818 0.1 4.409 0.79 0.374 0.44 0.986 0.8 1.36 0.8 0.621 0 0.683 0.77 0.717 8.88 0.02 4.88 0.198 9.44 0.396 10.13 0.219 0.76 0.214 1.25-0.011 1.25-0.203 0-0.37 0.35-0.37 0.79s0.236 0.8 0.524 0.8c0.389 0 0.535 0.88 0.571 3.45 0.03 2.25-0.081 3.26-0.319 2.88-0.234-0.37-0.366 1.29-0.366 4.59 0 3.58 0.122 4.98 0.397 4.57 0.277-0.42 0.365 0.46 0.292 2.87-0.07 2.31-0.26 3.48-0.567 3.48-0.785 0-0.724 41.66 0.062 41.96 0.391 0.15 0.598 0.77 0.598 1.78v1.55h2.185c1.92 0 2.184-0.1 2.184-0.8 0-0.53 0.265-0.79 0.795-0.79 0.437 0 0.794-0.24 0.794-0.52s0.581-0.68 1.291-0.9c0.71-0.21 1.247-0.6 1.192-0.87-0.058-0.29 0.315-0.49 0.894-0.49 0.728 0 0.993-0.22 0.993-0.8 0-0.45 0.265-0.79 0.608-0.79 0.335 0 0.711-0.27 0.837-0.6s0.478-0.59 0.782-0.59 0.553-0.36 0.553-0.8c0-0.49 0.265-0.79 0.699-0.79 0.385 0 0.922-0.36 1.195-0.8 0.273-0.43 0.682-0.79 0.908-0.79 0.227 0 0.842-0.4 1.368-0.9 1.576-1.47 2.132-1.88 2.54-1.88 0.212 0 0.5-0.36 0.639-0.8 0.139-0.43 0.508-0.79 0.821-0.79s0.569-0.25 0.569-0.55 0.358-0.64 0.795-0.76c0.437-0.11 0.794-0.49 0.794-0.84 0-0.37 0.332-0.63 0.794-0.63 0.53 0 0.795-0.27 0.795-0.8 0-0.44 0.265-0.79 0.596-0.79 0.327 0 0.596-0.27 0.596-0.6s0.353-0.59 0.794-0.59c0.437 0 0.794-0.18 0.794-0.4s0.224-0.35 0.497-0.3c0.273 0.06 0.452-0.12 0.397-0.39-0.054-0.28 0.167-0.5 0.493-0.5 0.323 0 0.813-0.36 1.093-0.8 0.27-0.43 0.79-0.79 1.15-0.79 0.35 0 0.74-0.38 0.86-0.83 0.12-0.46 0.4-0.73 0.62-0.6 0.22 0.14 0.51-0.11 0.65-0.55s0.51-0.8 0.82-0.8 0.57-0.36 0.57-0.79c0-0.54 0.26-0.8 0.8-0.8 0.52 0 0.79-0.26 0.79-0.79 0-0.45 0.26-0.8 0.59-0.8 0.69 0 1.93-1.14 2.31-2.11 0.22-0.59 1.02-0.88 1.99-0.71 0.18 0.03 0.22-0.12 0.08-0.35-0.14-0.22-0.09-0.4 0.1-0.4s0.95-0.54 1.68-1.2c0.74-0.65 1.48-1.19 1.66-1.19s0.33-0.27 0.33-0.59c0-0.33 0.35-0.6 0.79-0.6 0.53 0 0.8-0.26 0.8-0.79s0.26-0.8 0.79-0.8c0.44 0 0.8-0.26 0.8-0.59s0.26-0.6 0.59-0.6 0.6-0.35 0.6-0.79 0.25-0.8 0.56-0.8 1.29-0.71 2.17-1.59c0.88-0.87 1.88-1.59 2.22-1.59 0.33 0 0.61-0.17 0.61-0.37 0-0.49 1.9-2.41 2.39-2.41 0.2 0 0.55-0.36 0.79-0.8 0.24-0.45 0.62-0.69 0.84-0.56 0.22 0.14 0.5-0.12 0.62-0.58s0.45-0.84 0.74-0.84 0.64-0.35 0.78-0.79c0.13-0.44 0.5-0.8 0.82-0.8 0.31 0 0.57-0.26 0.57-0.59s0.35-0.6 0.79-0.6c0.53 0 0.8-0.26 0.8-0.79 0-0.51 0.26-0.8 0.74-0.8 0.41 0 0.99-0.3 1.29-0.67 0.47-0.58 0.46-0.62-0.05-0.33-0.33 0.19-0.14-0.12 0.42-0.69 0.55-0.57 1.47-1.15 2.04-1.29s1.14-0.62 1.25-1.06c0.12-0.47 0.4-0.69 0.66-0.52 0.27 0.16 0.54-0.07 0.67-0.56 0.12-0.48 0.54-0.84 0.96-0.84s0.75-0.26 0.75-0.59 0.29-0.6 0.64-0.6 0.72-0.35 0.84-0.79c0.11-0.44 0.45-0.8 0.75-0.8 0.31 0 0.55-0.35 0.55-0.79 0-0.53 0.27-0.79 0.8-0.79 0.44 0 0.79-0.27 0.79-0.6s0.24-0.6 0.53-0.6c0.58 0 1.97-1.46 2.37-2.5 0.22-0.58 0.99-0.87 1.96-0.72 0.15 0.02 0.47-0.32 0.71-0.75 0.23-0.44 0.69-0.79 1.02-0.79 0.34 0 0.49-0.19 0.35-0.43-0.15-0.23 0.1-0.52 0.56-0.63 0.45-0.12 0.92-0.56 1.06-0.97 0.13-0.41 0.58-0.75 1-0.75s0.77-0.27 0.77-0.6 0.27-0.6 0.6-0.6 0.59-0.35 0.59-0.79c0-0.53 0.27-0.79 0.8-0.79s0.79-0.27 0.79-0.8 0.27-0.79 0.8-0.79 0.79-0.27 0.79-0.8c0-0.44 0.26-0.79 0.6-0.79 0.32 0 0.59-0.27 0.59-0.6 0-0.32 0.28-0.59 0.62-0.59 0.33 0 1.06-0.45 1.61-1s1.16-0.91 1.34-0.79c0.19 0.11 0.46-0.15 0.6-0.59s0.6-0.8 1.02-0.8 0.77-0.27 0.77-0.6c0-0.32 0.29-0.59 0.63-0.59 0.35 0 0.73-0.36 0.84-0.8 0.12-0.43 0.48-0.79 0.8-0.79s0.68-0.36 0.79-0.8c0.12-0.43 0.46-0.79 0.76-0.79s0.55-0.27 0.55-0.6 0.35-0.59 0.79-0.59c0.53 0 0.8-0.27 0.8-0.8 0-0.79 0.28-0.79 41.61-0.83 48.76-0.06 50.7-0.1 47.96-1.18-0.44-0.17 4.58-0.33 11.15-0.34 9.85-0.02 12.07-0.13 12.71-0.61 0.42-0.32 1.57-0.59 2.56-0.6 2.37-0.03 3.57-0.38 3.57-1.05 0-0.4 0.59-0.55 2.19-0.55 1.89 0 2.18-0.1 2.18-0.77 0-0.62 0.32-0.8 1.69-0.9 1.09-0.07 1.65-0.29 1.59-0.61-0.06-0.28 0.03-0.48 0.2-0.45 1.01 0.16 2.08-0.15 2.88-0.84 0.5-0.44 1.2-0.8 1.55-0.8s0.86-0.36 1.13-0.79c0.29-0.46 0.93-0.8 1.5-0.8 0.55 0 1.11-0.27 1.23-0.59 0.13-0.33 0.46-0.6 0.74-0.6 0.27 0 0.75-0.3 1.05-0.67 0.47-0.58 0.46-0.63-0.05-0.33-0.36 0.2-0.47 0.19-0.27-0.03 0.34-0.37 0.53-0.42 1.81-0.51 0.41-0.03 0.84-0.41 0.95-0.84 0.12-0.44 0.5-0.8 0.84-0.8 0.35 0 0.64-0.27 0.64-0.59 0-0.33 0.35-0.6 0.79-0.6 0.53 0 0.8-0.26 0.8-0.79 0-0.44 0.24-0.8 0.55-0.8 0.3 0 1.28-0.73 2.18-1.63s1.64-1.89 1.64-2.19 0.35-0.55 0.79-0.55c0.53 0 0.8-0.26 0.8-0.79 0-0.44 0.26-0.8 0.59-0.8s0.6-0.26 0.6-0.59 0.27-0.6 0.6-0.6c0.34 0 0.78-0.45 0.99-1s0.65-1.11 0.98-1.24c0.33-0.12 0.61-0.63 0.61-1.13s0.26-1.02 0.59-1.14c0.33-0.13 0.6-0.49 0.6-0.81s0.35-0.7 0.79-0.83c0.55-0.18 0.8-0.61 0.8-1.38 0-0.78 0.23-1.18 0.79-1.32 0.61-0.16 0.79-0.54 0.79-1.64 0-1 0.18-1.42 0.6-1.42 0.41 0 0.6-0.42 0.6-1.35 0-0.99 0.2-1.39 0.76-1.54s0.81-0.62 0.9-1.74c0.08-1.01 0.3-1.49 0.65-1.42 0.29 0.06 0.42-0.06 0.29-0.27s-0.05-0.5 0.17-0.63c0.22-0.14 0.4-0.94 0.4-1.77 0-0.97 0.21-1.61 0.58-1.75 0.44-0.17 0.61-1.1 0.7-3.72 0.06-1.92 0.27-3.43 0.47-3.36 0.85 0.32 1.02-1.52 1.03-10.95 0-8.99 0.07-10.04 0.65-10.04 0.49 0 0.54-0.12 0.21-0.52-0.32-0.39-0.31-0.66 0.05-1.01 0.89-0.89 0.68-86.972-0.21-88.339-0.6-0.922-0.7-2.121-0.7-9.119-0.01-4.516-0.18-8.32-0.39-8.653-0.22-0.328-0.39-0.418-0.4-0.199-0.05 1.672-0.78-1.327-0.79-3.229 0-1.672-0.19-2.588-0.6-2.928-0.33-0.274-0.6-1.14-0.6-1.939 0-1.015-0.23-1.593-0.79-1.941-0.44-0.275-0.8-0.926-0.8-1.462 0-0.532-0.18-1.079-0.4-1.216s-0.3-0.416-0.17-0.619c0.12-0.204-0.04-0.37-0.37-0.37-0.35 0-0.64-0.445-0.72-1.093-0.07-0.6-0.31-1.06-0.54-1.02-0.22 0.039-0.45-0.484-0.5-1.162-0.06-0.696-0.44-1.474-0.88-1.783-0.43-0.302-0.78-0.985-0.78-1.519 0-0.706-0.22-0.97-0.8-0.97-0.51 0-0.79-0.265-0.79-0.752 0-0.414-0.27-0.855-0.6-0.981s-0.59-0.698-0.59-1.271c0-0.709-0.26-1.109-0.8-1.251-0.44-0.115-0.79-0.541-0.79-0.956 0-0.483-0.29-0.748-0.8-0.748-0.53 0-0.79-0.264-0.79-0.794 0-0.441-0.27-0.794-0.6-0.794s-0.59-0.171-0.59-0.38c0-0.593-1.96-2.401-2.6-2.401-0.32 0-0.58-0.358-0.58-0.794 0-0.442-0.27-0.795-0.6-0.795s-0.59-0.268-0.59-0.596c0-0.331-0.36-0.596-0.8-0.596-0.53 0-0.79-0.264-0.79-0.794s-0.27-0.794-0.8-0.794c-0.44 0-0.79-0.265-0.79-0.606 0-0.333-0.46-0.78-1.02-0.992-0.56-0.213-0.91-0.557-0.78-0.765s-0.4-0.496-1.17-0.641c-0.8-0.151-1.4-0.497-1.4-0.814 0-0.304-0.36-0.552-0.8-0.552-0.43 0-0.79-0.26-0.79-0.578 0-0.346-0.56-0.682-1.39-0.838-0.77-0.144-1.39-0.49-1.39-0.77 0-0.568-0.86-0.992-2.02-0.992-0.42 0-0.76-0.268-0.76-0.595 0-0.408-0.41-0.596-1.3-0.596-0.86 0-1.46-0.264-1.79-0.795-0.34-0.552-0.92-0.794-1.9-0.794-0.84 0-1.31-0.161-1.17-0.398 0.31-0.496-1.45-1.191-3-1.191-0.77 0-1.17-0.202-1.17-0.596 0-0.457-0.51-0.596-2.18-0.596-1.85 0-2.19-0.111-2.19-0.723 0-0.596-0.36-0.74-2.08-0.817-1.15-0.051-2.15-0.261-2.22-0.468-0.19-0.53-191.13-0.508-191.13 0.022 0 0.219-0.358 0.397-0.795 0.397-0.436 0-0.794-0.178-0.794-0.397 0-0.218-0.357-0.397-0.794-0.397s-0.795 0.179-0.795 0.397c0 0.219-0.625 0.397-1.39 0.397s-1.39-0.178-1.39-0.397c0-0.241-1.722-0.397-4.37-0.397s-4.369 0.156-4.369 0.397c0 0.219-0.358 0.397-0.795 0.397s-0.794-0.178-0.794-0.397c0-0.218-0.268-0.397-0.596-0.397s-0.596 0.179-0.596 0.397c0 0.219-0.357 0.397-0.794 0.397s-0.795-0.178-0.795-0.397c0-0.231-1.324-0.397-3.177-0.397-1.854 0-3.178 0.166-3.178 0.397m291.16 92.473c0 18.84-0.13 26.26-0.45 26.58-0.27 0.28-0.38 1.37-0.27 2.84 0.09 1.31 0.03 2.3-0.15 2.19-0.48-0.29-0.39 3.99 0.09 4.47 0.29 0.29 0.27 0.77-0.06 1.57-0.35 0.85-0.52 8.82-0.64 29.76-0.14 23.4-0.26 28.67-0.7 29.02-0.45 0.34-0.42 0.5 0.13 0.9 0.36 0.27 0.44 0.39 0.16 0.26-0.5-0.24-1.25 1.15-1.19 2.23 0.18 3.46-0.16 6.71-0.69 6.71-0.44 0-0.6 0.46-0.6 1.76 0 2.22-0.31 3.02-1.04 2.74-0.32-0.12-0.55-0.07-0.52 0.12 0.33 1.82-0.1 4.05-0.82 4.24-0.48 0.12-0.8 0.54-0.8 1.04 0 0.46-0.21 0.78-0.48 0.73-0.52-0.11-0.59 0.13-0.66 2.48-0.03 0.88-0.24 1.59-0.47 1.59s-0.32-0.16-0.19-0.37c0.12-0.2 0.05-0.47-0.16-0.61-0.21-0.13-0.5 0.4-0.64 1.17-0.16 0.82-0.5 1.4-0.83 1.4-0.62 0-1.47 1.84-1.11 2.42 0.12 0.2-0.06 0.36-0.4 0.36-0.35 0-0.62 0.34-0.62 0.79 0 0.44-0.26 0.8-0.58 0.8s-0.79 0.4-1.05 0.89-0.58 0.99-0.71 1.1c-0.8 0.66-1.76 2.08-1.23 1.82 0.35-0.17 0.31-0.06-0.1 0.27-0.39 0.32-0.7 0.76-0.7 0.98s-0.35 0.5-0.79 0.62c-0.44 0.11-0.8 0.47-0.8 0.79s-0.35 0.68-0.79 0.79c-0.44 0.12-0.8 0.5-0.8 0.84 0 0.35-0.26 0.64-0.59 0.64s-0.6 0.25-0.6 0.55-0.36 0.64-0.79 0.75c-0.44 0.12-0.8 0.5-0.8 0.85 0 0.36-0.33 0.63-0.79 0.63-0.53 0-0.8 0.26-0.8 0.79 0 0.45-0.26 0.8-0.59 0.8s-0.6 0.27-0.6 0.59c0 0.34-0.35 0.6-0.79 0.6-0.53 0-0.8 0.26-0.8 0.79 0 0.63-0.26 0.8-1.22 0.8-0.9 0-1.29 0.21-1.44 0.79-0.12 0.44-0.54 0.8-0.96 0.8-0.41 0-0.74 0.25-0.74 0.55s-0.47 0.67-1.03 0.81c-0.69 0.17-0.96 0.45-0.81 0.84 0.17 0.44-0.11 0.58-1.16 0.58-1.11 0-1.37 0.15-1.37 0.79 0 0.61-0.27 0.8-1.15 0.8-0.66 0-1.25 0.25-1.38 0.59-0.13 0.33-0.67 0.6-1.2 0.6-1.39 0-2.23 0.39-2.23 1.03 0 0.39-0.52 0.56-1.69 0.56-0.93 0.01-1.96 0.18-2.28 0.39-0.4 0.26-0.44 0.39-0.1 0.4 0.27 0 0.49 0.18 0.49 0.4 0 0.24-1.79 0.4-4.57 0.4-3.44 0-4.54 0.12-4.46 0.49 0.17 0.85-2.39 0.87-2.61 0.03-0.17-0.66-0.19-0.66-0.23-0.03-0.04 0.69-11.96 2.21-27.94 1.95-3.46-0.05-19.75 0.33-42.48 0.33-41.01 0-42.94 0.05-42.21 1.24 0.12 0.2 0.02 0.35-0.21 0.35-0.24 0-1.6 1.17-3.01 2.59s-2.47 2.58-2.35 2.58c0.11 0-0.43 0.56-1.22 1.25-0.78 0.69-1.33 1.48-1.23 1.75 0.11 0.28-0.2 0.6-0.71 0.73-0.5 0.12-1.54 1.03-2.3 2.01-0.77 0.99-1.51 1.67-1.65 1.54-0.14-0.14-0.36 0.31-0.5 1-0.14 0.71-0.5 1.25-0.83 1.25-0.53 0-0.84 0.21-2.19 1.47-1.02 0.96-1.5 1.69-1.5 2.29 0 0.35-0.35 0.61-0.8 0.61-0.44 0-0.79 0.27-0.79 0.6s-0.35 0.59-0.8 0.59c-0.52 0-0.79 0.27-0.79 0.8 0 0.44-0.27 0.79-0.6 0.79s-0.59 0.36-0.59 0.8c0 0.53-0.27 0.79-0.8 0.79-0.44 0-0.79 0.27-0.79 0.6s-0.35 0.59-0.79 0.59c-0.54 0-0.8 0.27-0.8 0.8 0 0.44-0.26 0.79-0.6 0.79-0.33 0-0.59 0.36-0.59 0.8 0 0.53-0.27 0.79-0.8 0.79-0.44 0-0.79 0.27-0.79 0.6 0 0.32-0.28 0.59-0.63 0.59s-0.73 0.36-0.84 0.8c-0.12 0.43-0.46 0.79-0.76 0.79s-0.55 0.36-0.55 0.8c0 0.53-0.26 0.79-0.8 0.79-0.43 0-0.79 0.17-0.79 0.38s-0.45 0.83-1.01 1.39-1.18 1.01-1.39 1.01-0.38 0.36-0.38 0.8c0 0.52-0.27 0.79-0.79 0.79-0.44 0-0.8 0.25-0.8 0.55s-0.36 0.64-0.79 0.76c-0.44 0.11-0.8 0.49-0.8 0.84 0 0.34-0.22 0.63-0.5 0.63-0.75 0-1.37 2.4-0.89 3.48 0.37 0.85 0.6 0.89 4.9 0.89 3.84 0 4.49 0.09 4.3 0.59-0.13 0.33-0.1 0.57 0.05 0.55 1.81-0.27 59.66 0.14 59.49 0.42-0.13 0.2 0.1 0.61 0.5 0.9 0.4 0.28 0.84 0.83 0.98 1.21 0.15 0.39 0.52 0.7 0.82 0.7 0.32 0 0.66 0.36 0.78 0.79 0.11 0.44 0.5 0.8 0.86 0.8s0.54 0.19 0.39 0.42c-0.14 0.24 0.11 0.52 0.56 0.64s0.93 0.55 1.06 0.97c0.13 0.41 0.5 0.75 0.81 0.75s0.57 0.22 0.58 0.5c0 0.58 1.71 2.28 2.28 2.28 0.22 0 0.49 0.36 0.6 0.79 0.12 0.44 0.5 0.8 0.85 0.8 0.34 0 0.63 0.25 0.63 0.55 0 0.31 0.27 0.66 0.6 0.78 0.32 0.13 0.59 0.51 0.59 0.84 0 0.34 0.35 0.61 0.79 0.61 0.54 0 0.8 0.26 0.8 0.79s0.26 0.8 0.79 0.8 0.8 0.26 0.8 0.79c0 0.44 0.26 0.8 0.59 0.8s0.6 0.26 0.6 0.59 0.35 0.6 0.79 0.6c0.53 0 0.8 0.26 0.8 0.79s0.26 0.8 0.79 0.8 0.8 0.26 0.8 0.79c0 0.44 0.26 0.8 0.59 0.8s0.6 0.26 0.6 0.59 0.35 0.6 0.79 0.6c0.53 0 0.8 0.26 0.8 0.79s0.26 0.8 0.79 0.8 0.8 0.26 0.8 0.79c0 0.44 0.26 0.79 0.59 0.79s0.6 0.27 0.6 0.6 0.35 0.6 0.79 0.6c0.53 0 0.8 0.26 0.8 0.79 0 0.51 0.26 0.8 0.75 0.8 0.41 0 0.84 0.35 0.95 0.79 0.12 0.44 0.49 0.79 0.84 0.79s0.63 0.27 0.63 0.6 0.27 0.6 0.6 0.6 0.6 0.35 0.6 0.79c0 0.53 0.26 0.8 0.79 0.8 0.44 0 0.8 0.24 0.8 0.54 0 0.31 0.73 1.29 1.63 2.19s1.88 1.63 2.19 1.63c0.3 0 0.55 0.34 0.55 0.75s0.3 0.99 0.67 1.29c0.58 0.47 0.63 0.46 0.37-0.05-0.28-0.53-0.25-0.53 0.24 0 0.29 0.33 0.8 0.85 1.12 1.15 0.5 0.49 0.5 0.52-0.02 0.23-0.33-0.18 0.3 0.56 1.39 1.65s2.73 2.82 3.65 3.85c0.91 1.02 1.84 1.86 2.07 1.86s0.53 0.44 0.67 0.98c0.13 0.54 0.58 1.09 1 1.22 0.41 0.13 0.75 0.49 0.75 0.81 0 0.31 0.25 0.56 0.55 0.56s0.64 0.36 0.76 0.8c0.11 0.44 0.47 0.79 0.79 0.79 0.33 0 0.68 0.36 0.8 0.8 0.11 0.43 0.49 0.79 0.84 0.79s0.63 0.17 0.63 0.38c0 0.49 1.91 2.4 2.4 2.4 0.21 0 0.38 0.36 0.38 0.8 0 0.51 0.27 0.79 0.75 0.79 0.43 0 0.84 0.36 0.97 0.84 0.12 0.45 0.4 0.71 0.64 0.57 0.24-0.15 0.42 0.06 0.42 0.51 0 0.43 0.35 0.86 0.8 0.98 0.43 0.11 0.79 0.49 0.79 0.84s0.21 0.63 0.47 0.63c0.55 0 3.9 3.42 3.9 3.98 0 0.22 0.26 0.39 0.57 0.39s0.68 0.36 0.82 0.79c0.14 0.44 0.51 0.8 0.82 0.8s0.57 0.26 0.57 0.57 0.34 0.67 0.76 0.81c0.42 0.13 0.86 0.5 0.98 0.82s0.5 0.58 0.83 0.58 0.59 0.13 0.56 0.3c-0.13 0.82 0.11 1.29 0.65 1.29 0.32 0 0.59 0.25 0.59 0.57 0 0.31 0.34 0.68 0.76 0.81 0.41 0.13 0.86 0.5 0.98 0.82s0.5 0.58 0.83 0.58c0.34 0 0.59 0.13 0.56 0.3-0.13 0.82 0.11 1.29 0.64 1.29 0.33 0 0.6 0.25 0.6 0.57 0 0.31 0.36 0.68 0.8 0.82 0.43 0.14 0.79 0.51 0.79 0.82s0.25 0.57 0.57 0.57c0.31 0 0.68 0.36 0.82 0.79 0.14 0.44 0.51 0.8 0.82 0.8s0.57 0.25 0.57 0.57c0 0.31 0.36 0.68 0.79 0.82 0.44 0.14 0.8 0.51 0.8 0.82s0.36 0.57 0.79 0.57c0.53 0 0.8 0.26 0.8 0.79 0 0.44 0.18 0.8 0.41 0.8 0.22 0 0.98 0.62 1.68 1.39 0.7 0.76 1.5 1.39 1.78 1.39 0.27 0 0.5 0.15 0.5 0.34 0 0.44 4.56 4.03 5.13 4.03 0.23 0 0.43 0.35 0.43 0.79 0 0.51 0.26 0.8 0.74 0.8 0.41 0 0.98 0.27 1.26 0.61 0.58 0.71 2.22 0.61 2.07-0.13-0.05-0.26 0.15-0.48 0.45-0.48 1.32 0 1.4-0.97 1.46-18.59 0.03-9.66 0.2-17.47 0.37-17.37 0.17 0.11 0.43-0.08 0.56-0.42 0.39-1.03 0.27-1.35-0.4-1.09-0.54 0.21-0.57 0.11-0.22-0.54 0.57-1.07 0.53 0.08 0.72-20.94 0.14-15.48 0.27-18.76 0.75-19.45 0.32-0.46 0.58-1.01 0.57-1.24 0-0.22-0.17-0.14-0.37 0.18-0.32 0.5-0.41 0.48-0.64-0.12-0.18-0.46-0.02-0.89 0.46-1.24 0.86-0.63 0.8 0.01 0.89-9.45l0.07-7.45h1.78c1.07 0 2.28-0.31 3.07-0.79 1.14-0.7 2.01-0.8 6.96-0.8 5.4 0 5.66-0.04 5.66-0.79 0-0.74 0.27-0.8 3.54-0.8 2.77 0 3.58-0.13 3.76-0.59 0.16-0.43 0.84-0.6 2.42-0.6 1.29 0 2.2-0.17 2.2-0.42 0-0.23 0.18-0.31 0.4-0.17 0.22 0.13 0.51-0.04 0.64-0.38 0.17-0.45 0.79-0.62 2.22-0.62 1.65 0 2.01-0.13 2.19-0.79 0.18-0.72 2.08-1.13 3.82-0.83 0.18 0.03 0.21-0.13 0.08-0.34-0.24-0.39 0.6-0.69 2.57-0.91 0.57-0.06 0.99-0.36 0.99-0.7 0-0.41 0.49-0.64 1.49-0.72 1.17-0.1 1.49-0.29 1.49-0.9s0.28-0.77 1.39-0.77c0.97 0 1.39-0.18 1.39-0.59 0-0.37 0.38-0.6 1-0.6 0.54 0 1.3-0.36 1.67-0.79 0.38-0.44 0.87-0.8 1.1-0.8s0.68-0.36 1-0.79c0.31-0.44 0.98-0.8 1.47-0.8 0.54 0 0.91-0.24 0.91-0.59 0-0.33 0.29-0.6 0.63-0.6 0.35 0 0.73-0.36 0.84-0.79 0.12-0.44 0.55-0.8 0.96-0.8 0.48 0 0.75-0.28 0.75-0.79 0-0.53 0.26-0.8 0.79-0.8 0.44 0 0.8-0.26 0.8-0.59s0.26-0.6 0.59-0.6 0.6-0.35 0.6-0.79c0-0.53 0.26-0.8 0.79-0.8s0.8-0.26 0.8-0.79 0.26-0.79 0.79-0.79 0.8-0.27 0.8-0.8c0-0.44 0.26-0.79 0.59-0.79 0.42 0 0.6-0.42 0.6-1.39 0-1.13 0.15-1.4 0.79-1.4 0.44 0 0.8-0.22 0.8-0.5s0.35-0.82 0.79-1.19 0.8-1.13 0.8-1.68c0-0.62 0.22-0.99 0.59-0.99 0.42 0 0.6-0.42 0.6-1.39 0-1.12 0.15-1.39 0.77-1.39 0.66 0 0.79-0.33 0.9-2.19 0.06-1.21 0.27-2.18 0.47-2.15 0.73 0.08 1.02-1.13 1.03-4.26 0-2.36 0.16-3.36 0.59-3.71 0.48-0.4 0.61-2.01 0.7-8.49 0.08-6.39 0.21-7.98 0.63-7.89 0.29 0.06 0.41-0.09 0.26-0.32-0.14-0.23-0.06-0.66 0.17-0.94 0.36-0.44 0.41-89.28 0.05-92.6-0.23-2.15-0.46-2.74-0.83-2.16-0.22 0.36-0.36-3.44-0.37-10.01 0-9.04-0.09-10.62-0.6-10.81-0.45-0.17-0.6-0.92-0.6-3.13 0-2.46-0.11-2.96-0.79-3.39-0.6-0.37-0.79-0.92-0.79-2.28 0-1.52-0.12-1.78-0.8-1.78-0.64 0-0.79-0.27-0.79-1.41 0-0.875-0.23-1.482-0.6-1.626-0.35-0.137-0.59-0.735-0.59-1.488 0-0.768-0.31-1.525-0.8-1.94-0.44-0.374-0.79-1.039-0.79-1.478 0-0.534-0.27-0.799-0.8-0.799-0.64 0-0.79-0.264-0.79-1.402 0-0.881-0.22-1.488-0.6-1.632-0.33-0.126-0.6-0.522-0.61-0.881-0.01-0.827-0.97-2.115-1.31-1.772-0.15 0.142-0.26-0.145-0.26-0.639 0-0.564-0.3-0.975-0.8-1.106-0.43-0.114-0.79-0.455-0.79-0.757s-0.37-0.913-0.81-1.358-0.71-0.969-0.59-1.163c0.12-0.195-0.14-0.469-0.58-0.609-0.44-0.139-0.8-0.599-0.8-1.021 0-0.503-0.28-0.768-0.8-0.768-0.53 0-0.79-0.265-0.79-0.794 0-0.437-0.25-0.795-0.55-0.795s-0.64-0.357-0.76-0.794c-0.11-0.437-0.49-0.795-0.84-0.795s-0.63-0.268-0.63-0.595c0-0.331-0.36-0.596-0.8-0.596-0.53 0-0.79-0.265-0.79-0.795 0-0.513-0.27-0.794-0.75-0.794-0.41 0-0.84-0.355-0.95-0.795-0.13-0.466-0.55-0.794-1.02-0.794-0.45 0-0.94-0.206-1.09-0.459-0.19-0.303-0.11-0.35 0.24-0.137 0.34 0.213 0.42 0.166 0.23-0.137-0.15-0.252-0.72-0.459-1.25-0.459-0.71 0-0.97-0.217-0.97-0.794 0-0.588-0.27-0.795-1.02-0.795-0.56 0-0.91-0.169-0.78-0.377 0.29-0.465-1.04-1.211-2.15-1.211-0.46 0-0.82-0.259-0.82-0.596 0-0.45-0.48-0.596-1.98-0.596h-1.99v26.137m-99.9-20.982c3.49 0.371 8.59 1.414 9.65 1.973 0.37 0.195 1.48 0.742 2.46 1.215 6.27 3.013 18.28 14.978 18.28 18.206 0 0.171 0.61 1.56 1.36 3.086 1.78 3.609 2.21 7.652 2.21 20.752 0 14.66-0.45 18.38-2.81 23.3-0.42 0.87-0.76 1.75-0.76 1.95s-0.25 0.65-0.56 0.99c-0.3 0.35-1.03 1.62-1.62 2.82-0.58 1.2-1.23 2.5-1.44 2.88-0.52 0.99 0.2 1.94 4.4 5.8 4.58 4.21 4.59 4.04-0.49 9.1-5.16 5.14-3.88 5.4-11.81-2.37l-2.31-2.27-2.32 0.78c-1.28 0.44-2.8 1.06-3.38 1.38s-1.38 0.59-1.79 0.6c-0.4 0.01-1.44 0.29-2.32 0.62-5.15 1.93-22.38 1.93-26.9 0-0.81-0.35-1.74-0.63-2.06-0.63-0.66 0-6.01-2.54-8.18-3.88-7-4.33-13-12.39-15.87-21.35-0.49-1.53-1.07-3.32-1.28-3.97-2.77-8.6-1.97-27.77 1.46-35.015 0.33-0.689 0.6-1.433 0.6-1.653 0-0.221 0.71-1.663 1.59-3.205 0.87-1.542 1.58-2.9 1.58-3.018 0-0.555 4.64-6.39 6.25-7.873 1.01-0.918 2.02-1.849 2.26-2.069 0.58-0.533 5.68-3.829 7.2-4.653 5.38-2.908 17.34-4.481 26.6-3.496m-97.05 1.579c8.92 0.452 8.79 0.365 10.67 7.678 0.22 0.827 0.57 1.81 0.78 2.185 0.43 0.752 1.42 3.49 2.03 5.647 0.37 1.27 1.57 4.59 2.37 6.554 0.18 0.437 0.51 1.42 0.73 2.185 0.39 1.359 0.94 2.904 3.02 8.544 0.57 1.53 1.19 3.31 1.38 3.97 0.19 0.65 0.82 2.44 1.4 3.97s1.18 3.32 1.35 3.97c0.17 0.66 0.6 1.77 0.96 2.47s0.66 1.68 0.66 2.19 0.23 1.28 0.52 1.71c0.28 0.43 1.03 2.39 1.65 4.36 0.63 1.96 1.28 3.76 1.45 3.99 0.17 0.22 0.49 1.12 0.7 1.98 0.43 1.72 1.44 4.68 2.03 5.94 0.42 0.9 1.85 4.95 2.38 6.76 0.56 1.89 1.68 5.1 2.05 5.84 0.18 0.38 0.49 1.36 0.69 2.19 0.2 0.82 0.65 2.18 1.01 3 0.63 1.47 0.63 1.52-0.34 2.48l-0.98 0.99h-8.32-8.32l-1.07-3.08c-0.58-1.7-1.29-3.62-1.57-4.27-0.28-0.66-0.65-1.82-0.81-2.59-0.16-0.76-0.42-1.56-0.58-1.78-0.15-0.22-0.49-1.13-0.74-2.02-0.85-2.97-0.5-2.88-14-3.33-6.65-0.22-13.99-0.4-16.31-0.41h-4.21l-1.11 3.47c-1.33 4.2-3.38 11.08-4.01 13.51-0.1 0.38-2.29 0.5-9.25 0.5-9.12 0-10.59-0.13-10.12-0.89 0.14-0.22 0.39-0.96 0.57-1.64 0.18-0.69 0.79-2.5 1.36-4.03s1.28-3.49 1.58-4.37c0.3-0.87 1.01-2.84 1.59-4.37s1.21-3.31 1.4-3.97 0.82-2.44 1.39-3.97c0.58-1.53 1.22-3.35 1.43-4.05s0.65-1.78 0.96-2.39c0.32-0.61 0.59-1.35 0.59-1.65 0-0.29 0.26-1.09 0.57-1.78 0.32-0.69 0.77-2.01 1.01-2.92 0.23-0.92 0.6-1.78 0.81-1.92 0.22-0.13 0.39-0.63 0.39-1.12s0.36-1.59 0.8-2.44c0.43-0.86 0.79-1.9 0.79-2.31s0.25-1.22 0.56-1.8 1.31-3.2 2.22-5.82c0.91-2.63 1.84-5.22 2.06-5.76 0.23-0.55 0.65-1.71 0.94-2.59 0.61-1.83 1.67-4.781 3.16-8.735 0.57-1.529 1.19-3.317 1.38-3.972s0.81-2.443 1.39-3.972c0.58-1.53 1.19-3.317 1.36-3.972 0.17-0.656 0.6-1.764 0.97-2.463 0.36-0.699 0.66-1.542 0.66-1.874 0-0.762 1.26-3.513 1.78-3.9 0.52-0.38 3.58-0.361 12.19 0.075m-50.61 8.27c0.09 5.286-0.01 6.896-0.39 7.015-0.28 0.085-10.32 0.346-22.319 0.58-19.453 0.379-21.887 0.497-22.542 1.09-1.131 1.023-1.121 16.748 0.01 17.778 0.663 0.6 2.87 0.72 19.961 1.15l19.21 0.48 0.11 7.1c0.14 8.64 0.29 8.33-4.05 8.03-6.073-0.4-33.238-1.1-34.147-0.88-2.181 0.55-2.809 7.65-2.235 25.26 0.311 9.51 0.29 12.16-0.096 12.41-0.27 0.17-3.976 0.27-8.236 0.21l-7.746-0.09-0.101-43.6-0.101-43.598 31.283 0.102 31.279 0.102 0.11 6.861m136.14 5.295c-13.32 4.484-19.23 14.048-19.26 31.158-0.02 14.85 4.55 23.63 15.11 29.02 5.43 2.77 11.92 3.01 16.58 0.61l1.71-0.89-1.91-2.03c-1.04-1.13-2.3-2.47-2.8-2.98-0.49-0.52-0.89-1.09-0.89-1.27 0-0.19-0.27-0.56-0.6-0.83-1.68-1.4-0.53-3.75 3.93-8.02l3.19-3.06 1.41 0.83c0.77 0.46 2.03 1.41 2.8 2.1 2.51 2.28 4.66 3.78 5.42 3.78s2.92-4.15 2.92-5.61c0-0.36 0.29-1.34 0.64-2.18 2.9-6.88-0.74-26.88-5.81-31.93-0.11-0.109-0.8-0.896-1.53-1.749-1.31-1.528-3.97-3.753-6.12-5.126-0.61-0.387-2.12-0.891-3.37-1.122-1.25-0.23-2.75-0.67-3.35-0.978-1.53-0.792-5.28-0.663-8.07 0.277m-89.03 11.351c-0.14 0.398-0.59 1.506-0.99 2.457-0.41 0.96-0.75 1.92-0.75 2.13s-0.26 0.95-0.57 1.64c-0.32 0.69-1.13 2.95-1.8 5.02-0.67 2.08-1.37 4.13-1.56 4.57-0.18 0.44-0.83 2.4-1.44 4.37-0.6 1.97-1.53 4.89-2.07 6.49-1.23 3.71-1.94 3.44 9.03 3.44 11.29 0 12.61-0.53 10.53-4.17-0.31-0.55-0.57-1.41-0.58-1.93-0.01-0.51-0.26-1.49-0.55-2.18-0.3-0.69-0.76-2.06-1.03-3.04-1.31-4.85-1.72-6.19-2.01-6.55-0.17-0.22-0.52-1.43-0.78-2.68s-0.61-2.37-0.79-2.48-0.45-0.85-0.6-1.64c-0.15-0.8-0.44-1.74-0.65-2.09-0.2-0.36-0.61-1.36-0.9-2.237-0.59-1.774-2.04-2.426-2.49-1.12" fill="#00a752"/>
 </g>
</svg>
