<?xml version="1.0" encoding="UTF-8"?>
<svg width="441px" height="419px" viewBox="0 0 441 419" version="1.1" xmlns="http://www.w3.org/2000/svg" xmlns:xlink="http://www.w3.org/1999/xlink">
    <!-- Generator: Sketch 50.2 (55047) - http://www.bohemiancoding.com/sketch -->
    <title>ayuda</title>
    <desc>Created with Sketch.</desc>
    <defs></defs>
    <g id="Page-1" stroke="none" stroke-width="1" fill="none" fill-rule="evenodd">
        <g id="ayuda" transform="translate(-26.000000, -69.000000)">
            <g id="afd4836712c5e77550897e25711e1d96" fill-rule="nonzero">
                <circle id="Oval" fill="#E13247" transform="translate(243.992408, 243.391367) rotate(52.322205) translate(-243.992408, -243.391367) " cx="243.992408" cy="243.391367" r="173.499898"></circle>
                <path d="M253.174035,239.267959 L178.545873,239.267959 L178.545873,247.732041 L253.174035,247.732041 L253.174035,239.267959 Z M253.174035,267.251735 L178.545873,267.251735 L178.545873,276.286429 L253.174035,276.286429 L253.174035,267.251735 Z M206.82852,127 L206.82852,155.150204 L178.545873,155.150204 L178.545873,183.300408 L151,183.300408 L151,360 L281.314081,360 L281.314081,331.707143 L308.859954,331.707143 L308.859954,304.29398 L337,304.29398 L337,127 L206.82852,127 Z M272.282648,350.941531 L160.055201,350.941531 L160.055201,191.740714 L272.282648,191.740714 L272.282648,350.941531 Z M299.82852,323.243061 L281.314081,323.243061 L281.314081,183.276633 L187.601073,183.276633 L187.601073,164.184898 L299.82852,164.184898 L299.82852,323.243061 Z M327.944799,295.259286 L308.859954,295.259286 L308.859954,155.126429 L215.859954,155.126429 L215.859954,136.034694 L327.944799,136.034694 L327.944799,295.259286 Z M253.174035,323.100408 L178.545873,323.100408 L178.545873,332.135102 L253.174035,332.135102 L253.174035,323.100408 Z M253.174035,294.950204 L178.545873,294.950204 L178.545873,303.984898 L253.174035,303.984898 L253.174035,294.950204 Z M253.316637,210.975102 L178.688474,210.975102 L178.688474,220.295102 L253.316637,220.295102 L253.316637,210.975102 Z" id="Shape" fill="#FFFFFF"></path>
            </g>
            <g id="Group" transform="translate(21.000000, 412.000000)" fill="#FFFFFF" font-family="Helvetica" font-size="77" font-weight="normal">
                <text id="NORMATIVA">
                    <tspan x="0" y="74">NORMATIVA</tspan>
                </text>
            </g>
        </g>
    </g>
</svg>