<?xml version="1.0" encoding="UTF-8"?>
<svg width="441px" height="435px" viewBox="0 0 441 435" version="1.1" xmlns="http://www.w3.org/2000/svg" xmlns:xlink="http://www.w3.org/1999/xlink">
    <!-- Generator: Sketch 50.2 (55047) - http://www.bohemiancoding.com/sketch -->
    <title>normativa</title>
    <desc>Created with Sketch.</desc>
    <defs></defs>
    <g id="Page-1" stroke="none" stroke-width="1" fill="none" fill-rule="evenodd">
        <g id="normativa" transform="translate(-26.000000, -69.000000)">
            <g id="afd4836712c5e77550897e25711e1d96" fill-rule="nonzero">
                <circle id="Oval" fill="#E13247" transform="translate(243.992408, 243.391367) rotate(52.322205) translate(-243.992408, -243.391367) " cx="243.992408" cy="243.391367" r="173.499898"></circle>
                <path d="M252.032839,239.421274 L182.620624,239.421274 L182.620624,247.29378 L252.032839,247.29378 L252.032839,239.421274 Z M252.032839,265.449194 L182.620624,265.449194 L182.620624,273.852431 L252.032839,273.852431 L252.032839,265.449194 Z M208.926527,135 L208.926527,161.182717 L182.620624,161.182717 L182.620624,187.365433 L157,187.365433 L157,351.715054 L278.206108,351.715054 L278.206108,325.399655 L303.826731,325.399655 L303.826731,299.902465 L330,299.902465 L330,135 L208.926527,135 Z M269.805904,343.289704 L165.422311,343.289704 L165.422311,195.215825 L269.805904,195.215825 L269.805904,343.289704 Z M295.426527,317.527148 L278.206108,317.527148 L278.206108,187.34332 L191.042933,187.34332 L191.042933,169.585954 L295.426527,169.585954 L295.426527,317.527148 Z M321.577689,291.499228 L303.826731,291.499228 L303.826731,161.160603 L217.326731,161.160603 L217.326731,143.403237 L321.577689,143.403237 L321.577689,291.499228 Z M252.032839,317.394466 L182.620624,317.394466 L182.620624,325.797702 L252.032839,325.797702 L252.032839,317.394466 Z M252.032839,291.211749 L182.620624,291.211749 L182.620624,299.614986 L252.032839,299.614986 L252.032839,291.211749 Z M252.165474,213.105874 L182.753258,213.105874 L182.753258,221.774477 L252.165474,221.774477 L252.165474,213.105874 Z" id="Shape" fill="#FFFFFF"></path>
            </g>
            <g id="Group" transform="translate(21.000000, 428.000000)" fill="#FFFFFF" font-family="Helvetica" font-size="77" font-weight="normal">
                <g id="NORMATIVA">
                    <text>
                        <tspan x="0" y="74">NORMATIVA</tspan>
                    </text>
                </g>
            </g>
        </g>
    </g>
</svg>