<svg version="1" xmlns="http://www.w3.org/2000/svg" width="2666.667" height="2666.667" viewBox="0 0 2000.000000 2000.000000"><path d="M979 .6C828.7 4.4 685.2 39.9 553 106c-124.4 62.2-231.6 147.5-323.3 257-44.4 53-90.6 123.9-123.1 188.8-74.4 148.6-110.3 311-105.5 477 2.9 101.3 20 196.7 52.7 293.2 84.9 250.8 268.2 459 506.6 575.5 100.5 49.2 201.8 79.5 313.1 93.9 69.7 9 146 10.4 217 4 243.3-22 471-133.1 638.6-311.7 208.1-221.7 303.8-527.1 259.8-828.7-24.1-165.1-89.1-320.9-189.9-455.5-43.1-57.5-98.6-116.3-153.9-163C1497.8 112.1 1317.9 33 1126.9 8.6c-45.2-5.8-105.1-9-147.9-8zm66.5 13.4c115.5 6 219.9 28.8 323 70.5 105.1 42.4 196.2 98.5 283.2 174.2 21.7 18.9 70.9 68.1 89.6 89.6 65.3 75.1 116.4 154 156 240.7 150.8 330.5 109.3 713.9-108.7 1004.5-27.8 37.1-54.5 67.6-91.5 104.5-29.2 29.2-46.2 44.7-71.6 65.5-198.7 162.8-452.4 241.4-709.3 220-222.2-18.6-434.7-114.2-596.2-268.3-105.1-100.4-184.2-217.5-237.5-351.7-106-267.2-90.1-567.8 43.6-822 37.4-71.1 78.6-131.1 132.6-193.2 17.4-20 66-68.8 86.3-86.7 86.2-76.1 180.4-134.3 286.5-177.1C724.3 47 823.2 23.7 923 16c37.5-3 88.5-3.8 122.5-2z"/><path d="M764.3 54.3l-4.2 1.1-4.6 11.3c-2.6 6.3-4.5 11.7-4.2 11.9.2.3 1.6.2 3.1-.2 2-.5 3.9-3.1 9.1-12.5 3.6-6.5 6.5-12 6.5-12.3 0-.7 0-.7-5.7.7zM1034 55.2c0 .1-1.8 23.4-4 51.7-2.2 28.3-3.8 51.6-3.6 51.9.3.2 10 1.1 21.6 2 17.3 1.3 22.4 1.4 28.3.4 19.3-3.4 30.5-14.4 35-34.7 5.1-23.4 2-42.7-8.8-54.3-9.2-9.9-18.9-13.4-42.5-15.1-8-.6-17.1-1.4-20.2-1.7-3.2-.3-5.8-.4-5.8-.2zm33.5 10.9c12.2 1.4 19.6 4.3 25.9 10 7.7 7.1 9.9 12.5 10.4 26.6 1.1 30.9-9 47.1-31.3 50.2-10.2 1.5-36.5-.6-36.5-2.8 0-.9.4-6.6.9-12.6.5-6.1 1.2-15.1 1.6-20 .9-13.4 1.5-22.5 2-27 .2-2.2.7-8.7 1.1-14.5.3-5.8.9-10.9 1.1-11.3.5-.8 10.5-.3 24.8 1.4zM907.6 58.7c-2.6.4-2.8.8-2.3 3.6 2.8 18.4 10.9 82.8 10.4 83.3-.4.4-1.4-.3-2.4-1.4-1-1.2-17.1-18.9-35.7-39.5l-33.9-37.4-5 .8c-2.7.5-5.1 1-5.2 1.1-.3.3 11.8 92.8 13 99.5.5 2.9 1 3.3 3.8 3.3 6.3 0 6.3 1.9.2-43.4-3.1-23-5.5-42.5-5.3-43.3.2-1 14.8 14.4 36.2 38.1l35.9 39.6 5.1-.6c2.8-.4 5.2-.8 5.3-.9.3-.2-12.4-96.6-13.3-100.8-.6-2.8-.9-2.8-6.8-2zM1142.6 66.2c-.3.7-4.6 23.6-9.6 50.8-5.1 27.2-9.4 49.8-9.7 50.2-.2.5-.1.8.3.8s16.4 2.9 35.7 6.5c19.2 3.6 35.1 6.4 35.2 6.3.2-.2.6-2 1-4 .6-3.3.5-3.8-1.6-4.2-1.3-.3-15-2.9-30.4-5.7-15.4-2.8-28.3-5.4-28.6-5.8-.7-.7 6.4-38.7 7.4-39.7.3-.4 13.1 1.7 28.3 4.5 15.3 2.9 28 4.8 28.4 4.4.4-.4 1-2.2 1.3-4 .5-2.6.3-3.2-1.6-3.6-1.2-.3-14-2.7-28.4-5.3-23.8-4.4-26.3-5-26.3-6.8 0-3.1 6.1-34 6.8-34.8.4-.4 13.7 1.8 29.6 4.8 15.9 3 29.5 5.4 30.1 5.4 1.1 0 3.1-6.7 2.3-7.5-.2-.2-15.2-3.1-33.3-6.5-18.2-3.4-33.8-6.4-34.8-6.6-.9-.3-1.9.1-2.1.8zM758.5 83.8c-8.8 2.7-14.2 5.8-20.5 11.8-12.3 11.7-16.7 29.5-12.4 50.2 4.7 22.9 20 40.1 39.2 44.1 7 1.5 11.3 1.4 19.6-.4 24.9-5.3 38.8-22.5 38.8-48-.1-24.6-11.8-46.3-30-55.2-7.1-3.6-8.2-3.8-18.1-4-7.9-.2-12.1.2-16.6 1.5zm29.2 9.7c23.7 11.6 34.3 51.2 19.5 72.7-5.9 8.6-14.1 13.4-26.8 15.7-18.9 3.5-36.8-9.6-43.9-32.1-6-19.1-3.6-36 7-47.6 10.2-11.3 30.6-15.3 44.2-8.7zM686 108.4c-1.9.7-3.4 2-3.4 2.7.2 1.5 33.4 96.1 34 96.8.7.8 8.4-2.2 8.4-3.2 0-.8-31.1-89.8-33.5-96-.8-2-.9-2-5.5-.3zM1310.6 162.1c-21.2 22.1-38.6 40.4-38.6 40.8 0 .4 1.9 1.4 4.3 2.3l4.2 1.7 12.1-12.6 12-12.6 22.2 8.8 22.2 8.9v35.3l4.2 1.6c2.3.9 4.3 1.5 4.5 1.3.2-.2.7-25.4 1-55.9l.6-55.6-4.7-2.1c-2.6-1.1-4.9-2-5.1-2-.1 0-17.6 18-38.9 40.1zm40.7-27.9c-.4.7-1 13.3-1.3 28-.4 14.7-.9 27-1.2 27.3-.5.5-34.4-12.5-37.1-14.2-.4-.2 2.8-4.4 7.2-9.1 20.9-22.8 35.9-37.5 32.4-32zM631 129.1c-13.8 2.3-29.2 13.4-35 25.3-13.6 27.5 3.9 70.1 32.6 79.6 12.1 4.1 26.2 2.7 38.8-3.7 7.4-3.8 15.9-12.9 18.6-20 2.8-7.2 3.7-20.1 2-28.3l-1.2-5.8-4.2 1.8c-3 1.3-4 2.2-3.8 3.6.2 1.1.6 5.4.9 9.6 1.3 17.2-8.2 30.5-25.1 35.4-18.6 5.2-37.2-4.8-47.5-25.6-10-20.4-8.8-39.5 3.2-51.8 14.4-14.8 35.8-16.1 49-2.9l3.9 3.9 3.9-1.7c2.1-1 3.9-2.4 3.9-3.1 0-2.4-9.1-10.5-14.5-13-4.9-2.3-14.8-4.6-18.5-4.3-.8.1-4 .5-7 1zM1411.4 153.2c-.9 1.8-11.8 22.6-24.2 46.2-12.4 23.7-22.1 43.1-21.6 43.3.5.2 14.2 7.3 30.4 15.8l29.5 15.4 1.7-3.2c.9-1.8 1.7-3.5 1.8-3.8 0-.3-11.5-6.6-25.5-14-14-7.3-25.5-13.8-25.5-14.3 0-.8 30.7-59.8 40.2-77.3l3.9-7.2-4-2.1c-2.2-1.1-4.3-2-4.5-2-.3 0-1.3 1.5-2.2 3.2zM522.3 184.6c-2.4 1.4-4.3 2.6-4.3 2.8 0 1.6 17 110 17.3 110.3 1.1 1 7.7-4.1 7.7-5.9 0-1.1-1.1-8.8-2.5-17.1-2.1-12.3-2.4-15.3-1.3-16.2 3.2-3 39.3-23.5 40.5-23.1.8.3 7.2 5.1 14.3 10.6l12.9 10.1 4.4-2.8 4.5-2.8-43.4-33.8c-23.8-18.5-43.9-33.9-44.6-34.2-.7-.3-3.2.7-5.5 2.1zm27.2 26.3c11.5 9.3 21.1 17.3 21.2 17.8.3.9-31.8 20.3-33.5 20.3-1.3 0-1.4-.6-5.7-27.5-1.9-12.1-3.8-23.2-4.1-24.8-.3-1.5-.2-2.7.3-2.7.4 0 10.2 7.6 21.8 16.9zM1468.8 220.8c-10.8 16.3-20.7 32.2-21.9 35.2-1.6 4-2.3 7.7-2.3 13.5-.1 7.1.3 8.8 3.2 14.7 2.1 4.3 5.1 8.4 8.7 11.6 18.9 17.3 41 18.8 56.1 3.7 3.5-3.5 43.4-62.3 43.4-64 0-.2-1.7-1.6-3.7-2.9l-3.7-2.5-19.4 29c-10.6 16-21.4 31.1-23.8 33.6-9.5 9.5-19.5 11-31.8 4.9-13.9-6.8-21.7-18.2-20.2-29.3 1-7.5 4.3-13.3 24.5-43.7 10.6-15.8 19.1-28.9 18.9-29-4.2-3-6.8-4.6-7.5-4.6-.4 0-9.7 13.4-20.5 29.8zM971.5 201.1c-71.9 2.6-139.2 13.9-205.5 34.4-138.7 43-260.7 120.2-357 226-108 118.7-177.2 265.5-200.4 425-5.7 39-7.8 69.7-7.8 113.5 0 45.4 2.1 74.8 8.3 117 21.3 144.5 83.1 282.8 176 394 116.9 140 275.2 234.9 454.4 272.4 83 17.3 177.6 20.8 263.5 9.6 135.7-17.8 267.5-71.3 376.5-153.2 100.6-75.5 181.1-172.5 237-285.3 51.1-103.1 78.6-212.7 82.5-328.3 6.9-208.2-67.6-410.4-208-564.7-96.4-105.8-218.2-182.9-357.4-226.1-82.7-25.6-173.7-37.6-262.1-34.3zm142.3 524.6l.2 116.3H335V609l389.3.2 389.2.3.3 116.2zm275 0l.2 116.3h-233V726.2c0-63.7.3-116.2.7-116.5.3-.4 52.7-.6 116.2-.5l115.6.3.3 116.2zm275.2-.2V842h-232V609h232v116.5zM1389 1135v253h-233V882h233v253zm275 0v253h-232V882h232v253zm-550-135v116H335V884h779v116zm0 271.5V1388H335v-233h779v116.5zM448.1 234.6c-8.2 2.2-16.7 7.2-23.2 13.6-20.4 20-18.1 51.5 5.6 75.4 6.2 6.2 9.8 9 15.9 12 7.9 3.9 8.1 3.9 20 3.9s12.2-.1 20-3.7c5.7-2.8 9.6-5.6 14.5-10.5 8.3-8.3 11.2-15 11.4-26.1.1-3.9.4-7.2.7-7.1.3 0 2.9 2.9 5.9 6.5 2.9 3.5 5.7 6.4 6.1 6.4.4 0 1.8-.8 3-1.8l2.3-1.9-15.3-20.4c-8.4-11.2-15.6-20.7-15.9-21.1-.3-.4-8.6 5.3-18.3 12.6l-17.7 13.3 2.7 3.2 2.7 3.2L482 282c7.4-5.5 14.1-9.9 15-9.8.8.2 3.1 3.4 5 7.2 3.2 6.4 3.5 7.6 3.5 16 0 7.6-.4 9.9-2.4 14-3.4 6.8-11.7 14.8-19.3 18.5-16.1 7.8-32.5 3.6-47.6-12.4-15.8-16.6-20.5-36.8-12.2-52.3 7.5-14.2 24.1-22.9 38.4-20.3 5 .9 10.5 3.2 14.7 6.3 1.3.9 2.4.6 5.3-1.7l3.8-2.9-2.4-1.8c-4.9-3.9-10.5-6.8-16.3-8.2-7.2-1.9-12.3-1.9-19.4 0zM1547.4 292.2c-18.7 21.4-34 39.4-34.2 39.8-.2.5 1.3 2.1 3.3 3.6 3.6 2.7 3.6 2.7 5.4.8 1-1 13.9-15.9 28.6-32.9 14.8-17.1 27.3-31.2 27.8-31.4.6-.2.8.3.5 1-.2.8-7.6 20.9-16.3 44.7l-15.7 43.3 2.8 3c1.5 1.6 3.3 2.9 3.9 2.9.9 0 39.1-19.6 73.4-37.7 6.8-3.5 12.2-6 12-5.5-.2.6-13.4 16-29.3 34.3l-28.8 33.3 3.3 2.8c1.9 1.5 3.7 2.8 4.1 2.8.5 0 60.5-68.6 66.2-75.9l2-2.4-5.3-4.9-5.3-4.8-9.1 4.9c-32.8 17.5-76.9 40.2-77.4 39.7-.4-.4 14.1-40.9 32.4-90.1.2-.6-2.1-3.2-5-5.7l-5.4-4.7-33.9 39.1zM352.2 312.2L326 337l35.6 37.5c19.6 20.6 36 37.5 36.4 37.5.5 0 12.6-11.1 26.9-24.7l26.1-24.7-2.9-3-3-3-13.6 13c-24.8 23.5-31.3 29.4-32.3 29.4-.5 0-7.1-6.6-14.7-14.6l-13.8-14.5 3.4-3.3c1.9-1.8 11.4-10.8 21.2-20.1l17.8-16.9-3-2.9-2.9-3-20.6 19.6c-11.3 10.9-21 19.7-21.5 19.7s-6.6-6-13.5-13.3L339 336.5l8.8-8.5c4.8-4.7 14.9-14.4 22.4-21.5l13.7-13-2.8-3.1-2.8-3.1-26.1 24.9zM1638.7 375.7l-38.8 34.7 3.5 3.5 3.5 3.4 11.7-10.4c6.5-5.7 21-18.6 32.2-28.7 11.3-10 20.9-18.2 21.4-18.2s.7.8.4 1.7c-1.3 4.5-24.6 100.7-24.6 101.7 0 .7 1.6 2.7 3.5 4.6 3.2 3.1 3.6 3.2 5.2 1.8 1-.8 18.5-16.4 39-34.6l37.2-33-3.2-3.7-3.2-3.7-32.8 29.2c-18.1 16-33 29-33.3 28.7-.2-.2 5.3-23.6 12.2-52l12.7-51.6-3.3-4c-1.7-2.3-3.5-4.1-3.8-4-.4 0-18.2 15.6-39.5 34.6zM271.6 397.9c-1.6 1.6-2.5 3.4-2.2 4 1 1.5 77.7 68.3 78.1 67.9.1-.2 10.3-11.8 22.5-25.8l22.1-25.5-3-2.7-3.1-2.8-17.2 19.7c-9.4 10.9-18.1 20.9-19.3 22.1l-2.2 2.4-35.7-31.1C291.9 409 275.5 395 275.1 395c-.4 0-2 1.3-3.5 2.9zM233.7 448.1c-11.5 15.9-20.6 29.3-20.3 29.8.8 1.3 83.6 60.4 84 60 .2-.2 9.7-13.4 21-29.4l20.7-29-2.6-2.2c-1.4-1.3-3-2.3-3.5-2.3-.4 0-8.8 11.3-18.7 25-9.8 13.8-18.3 24.8-18.9 24.6-2-.8-32.4-22.8-32.4-23.5 0-.4 7.4-11 16.5-23.6l16.5-23-3.1-2.7-3.2-2.7-16.6 23.4c-9.1 12.9-17 23.4-17.4 23.5-.7 0-27.5-18.7-30-20.9-.4-.4 7.3-12 17.2-25.8 16.2-22.7 17.8-25.3 16.3-26.5-4.9-4.1-3.5-5.5-25.5 25.3zM1727.1 441.6c-20.4 5.5-37.9 21-44.2 39-2.3 6.8-2.8 19.5-.9 26.4 3.2 11.7 14 26 23.8 31.3 19.5 10.6 44.7 5.7 64-12.7 14.5-13.8 20.2-29.2 16.8-45.4-3.9-18.7-18-34.3-35.1-38.8-6.4-1.8-17.5-1.7-24.4.2zm28.2 10.4c7.2 2.7 14.9 10.2 19.8 19.2 3.2 5.9 3.4 6.9 3.4 15.8 0 8.8-.3 10.1-3.3 16.3-6.8 13.8-23.4 26.4-39.8 30.3-17.6 4.1-33.3-3.6-42.3-20.6-4.6-8.7-5.4-19.5-2.1-28.2 7.5-19.9 32-36.6 52-35.4 3.6.2 9.1 1.4 12.3 2.6zM199.9 516.9c-12.4 4.8-18.6 11.9-33 37.4-8.6 15.2-9.5 17.3-8 18.3.9.6 19.8 11.3 42.1 23.9 22.3 12.5 41.9 23.6 43.6 24.6l3.2 1.9 10-17.7c12.8-22.7 14.6-27.8 14.6-40.3 0-10.2-1.5-15.1-7.2-23.4-6.1-8.9-27.6-22.5-40.4-25.5-7.2-1.7-19.5-1.3-24.9.8zm29.4 11.1c4.2 1.7 10.4 4.9 13.7 7.1 21.1 13.6 26.2 27.8 17.3 47.9-2.6 5.9-14.2 27-14.9 27-.7 0-73.9-41.3-75.1-42.4-.9-.8.6-4.2 6-13.6 8.5-14.8 18.4-25.7 25.7-28.3 7-2.6 17.8-1.7 27.3 2.3zM1800.3 533.1c-9.1 1.7-16.8 8-19.3 15.5-1.9 5.6-.7 15.7 3.9 33.7 4.9 18.8 5.2 25.1 1.6 31.2-1.8 3.2-3.7 4.8-7.7 6.5-4.7 2-5.7 2.1-10.3 1.1-9.7-2.3-18-10.5-23.1-23.1-2-4.8-2.7-8.3-2.8-13.5-.1-9.9 3.1-15.4 12.4-21.6l2.3-1.5-2.3-4.2-2.3-4.1-3 1.5c-5.2 2.7-11.4 9.3-13.6 14.4-3 6.9-3 18.3-.1 27.1 4.8 14.3 14.8 27.6 24.2 32.3 11.7 5.9 27.7 1.7 34.3-8.8 2.6-4.3 3-6 3.3-13.5.3-7.5-.3-11-4.2-26.9-2.5-10.1-4.6-20-4.6-22.1 0-10.9 14.7-18.7 25.6-13.5 8 3.8 16.4 17 17.2 27.2.7 8-1.4 13.9-6.9 19.4l-4.6 4.6 2 3.6c1.2 2 2.7 3.6 3.4 3.6 2.4 0 9.2-7.1 11.8-12.3 3.4-7.1 4.2-15.5 2-23.6-5.8-22.4-22.3-36.3-39.2-33zM1385 1750.5c-3 .8-14.2 5.8-24.8 11l-19.4 9.5 23.2 45.8c12.8 25.1 23.6 46.1 24 46.6 1 1 34.3-16 41.1-21 18-13.2 22.6-32.5 13.2-55.7-6.5-16.1-17.5-29.6-28-34.5-4.7-2.2-7.4-2.7-14.8-2.9-5.5-.2-11.1.3-14.5 1.2zm24.7 10.1c13.6 6.5 28.3 31.9 28.3 48.9 0 15.3-8.4 24.7-32.7 36.8-6.7 3.4-12.4 5.9-12.6 5.7-1-1.2-38.7-76.4-38.7-77.2 0-.5 6.4-4 14.3-7.9 20.9-10.3 30.2-11.7 41.4-6.3zM614.2 1802.9c-1.8 28.4-3.5 53.4-3.8 55.6l-.5 4 5.3 2.3 5.2 2.3 5.7-5.8c34.7-35.1 71.8-73.7 71.4-74.1-.3-.3-2.3-1.3-4.5-2.3l-4-1.8-34.1 35.5c-18.8 19.5-34.5 35.4-34.9 35.4-.5 0-.7-1-.5-2.3.2-1.2.6-6.7 1-12.2.3-5.5.8-12.3 1-15 .4-5.1 1-13.1 2-28.5.3-4.7.8-10.3 1-12.5.2-2.2.7-9.2 1-15.5.4-6.3.9-11.8 1.1-12.1.2-.4-1.8-1.5-4.4-2.6l-4.7-2-3.3 51.6zM1317.8 1779.7c-2.1.8-3.8 1.9-3.8 2.4 0 1.2 38 94.3 38.9 95.2.4.4 2.6 0 4.8-1l4-1.8-19.4-47.5c-10.7-26.1-19.7-47.8-20.1-48.2-.4-.3-2.4.1-4.4.9zM700.4 1829.7c-15.5 18.1-31.9 37.3-36.7 42.9l-8.5 10.1 4.9 1.5 4.9 1.6 11.2-13.4c6.1-7.4 11.7-13.3 12.3-13 .7.2 10.8 3.7 22.6 7.7s21.5 7.3 21.6 7.4c.1 0 .5 5.7.8 12.5.3 6.9.8 14.8 1.1 17.6.5 4.9.7 5.2 4.3 6.3 2.1.6 4.2 1.1 4.6 1.1.7 0 .3-12.3-1-34.5-.2-3.9-.7-13.1-1-20.5-.3-7.4-.8-16.4-1-20-.2-3.6-.7-13.3-1.1-21.6l-.6-15.1-4.7-1.6c-2.5-1-4.8-1.7-5.1-1.7-.3 0-13.2 14.7-28.6 32.7zm30.9-1c.4 10.8.7 23.4.7 28 0 7.6-.2 8.4-1.7 7.9-18.7-6-36.3-12.3-36.2-13.1.1-1.3 34.8-42.5 35.8-42.5.4 0 1.1 8.8 1.4 19.7zM1245.3 1805.7l-4.2 1.4 16.6 49.2c9.2 27.1 16.7 49.3 16.9 49.5.1.2 63.1-20.6 64.1-21.3.5-.3-2.1-7.5-2.6-7.5-.4 0-12.8 4-27.6 9-14.8 4.9-27.2 8.7-27.6 8.2-.3-.4-7.3-20.5-15.4-44.7-8.2-24.2-15.1-44.3-15.4-44.6-.3-.4-2.5 0-4.8.8zM779.6 1849.7c-4.3 19.1-9.5 42.1-11.5 51-3.7 16-3.7 16.2-1.7 16.7 1.2.3 15.4 3.5 31.6 7.1 16.2 3.6 30.3 6.8 31.2 7.1 1.3.4 1.9-.4 2.7-3.3.6-2 .7-4 .3-4.4-.4-.3-12.7-3.2-27.5-6.5-14.7-3.2-27.3-6.1-27.9-6.5-.8-.5 1.7-13.5 9-46.1 5.6-24.9 10.2-46.1 10.2-47.1 0-.9-.6-1.7-1.4-1.7-.7 0-2.7-.3-4.3-.6l-2.9-.6-7.8 34.9zM1173.5 1821.9c-8.7 2.5-15.8 6.7-21.6 12.8-22.9 24.2-13.4 74 16.9 89 7.6 3.8 7.6 3.8 20.1 3.8 10.6 0 13.6-.4 18.6-2.3 18.4-6.9 29.1-22 30.2-42.8 1.6-28.4-13-53.7-34.9-60.6-7.6-2.3-21-2.3-29.3.1zm28.7 9c22.5 10.8 33.5 45.4 22 68.9-3.4 6.9-11.6 14.4-19 17.3-8.2 3.3-23.7 3.4-30.3.1-10.8-5.3-19.1-15.8-23.5-29.6-3.3-10.4-3.5-25.1-.4-34 5.6-16.3 20.5-26.1 38.5-25.3 5.6.3 9.4 1 12.7 2.6zM863 1831.9c0 .7-2.9 24-6.5 51.8-3.6 27.8-6.4 50.7-6.3 50.8.8.8 65.1 8.6 66.4 8.1 1.4-.6 2.1-7.6.7-7.6-1.2 0-56.8-7.2-56.9-7.4-.1 0 2.6-21.6 6-47.9l6.2-47.7H870c-1.4 0-3.5-.3-4.7-.6-1.5-.4-2.3-.2-2.3.5zM1049.5 1840.6c-8.2.8-15 1.6-15.2 1.8-.5.4 8.5 102.7 9 103.3.3.2 10.1-.4 21.9-1.5 23.5-2.2 30.8-4 39.5-9.8 10.8-7 16.1-18.1 17-35.4 1.5-29.3-8.3-49.7-27.4-57-7.5-2.9-24.1-3.4-44.8-1.4zm34.9 7.9c17 3.6 25.2 14.9 27.8 38.2 2.8 24.5-4.9 39.6-23.2 45.4-5.4 1.7-27.9 4.8-35.6 4.9-1.9 0-2.1-.9-3.3-16.3-.7-8.9-1.4-16.9-1.6-17.7-.1-.8-.6-6-1-11.5s-.9-10.9-1-12c-.5-3.4-1.9-21.7-2-26v-4l11.5-1.1c16.2-1.6 20.6-1.6 28.4.1zM949.8 1891.2c-11.9 27.7-22 51.1-22.4 52-.5 1.6 0 1.8 4.3 1.8h5l6.7-16 6.8-16h13.1c7.3 0 18.2.3 24.2.6l11.1.7 5.8 16.3 5.8 16.4h4.9c2.7 0 4.9-.2 4.9-.5 0-.6-37.2-103.9-37.5-104.3-.2-.2-2.7-.6-5.6-.8l-5.4-.6-21.7 50.4zm36.1-12.7c5 14.2 8.8 26.1 8.5 26.4-.5.6-39.7.1-40.3-.5-.4-.3 17.7-44 20.6-49.7.8-1.6 1.6-2.7 1.8-2.5.3.2 4.5 12.1 9.4 26.3z"/></svg>