<?xml version="1.0" encoding="utf-8"?>
<svg viewBox="5.995 44.008 391.453 296.296" width="400" height="400" style="display: block;" xmlns="http://www.w3.org/2000/svg">
  <g id="svgg" transform="matrix(1, 0, 0, 1, 5.684341886080802e-14, 0)">
    <path id="path0" d="M319.000 46.238 C 315.292 47.874,298.103 55.797,293.500 57.992 C 276.145 66.268,263.865 72.000,263.488 72.000 C 263.110 72.000,249.576 78.314,233.500 85.990 C 216.990 93.873,203.865 100.000,203.488 100.000 C 203.241 100.000,197.293 102.725,190.269 106.055 C 183.246 109.385,175.250 113.164,172.500 114.453 C 169.750 115.742,164.125 118.381,160.000 120.318 C 155.875 122.255,148.900 125.498,144.500 127.523 C 140.100 129.549,132.225 133.211,127.000 135.661 C 121.775 138.110,115.250 141.168,112.500 142.456 C 109.750 143.743,104.125 146.381,100.000 148.318 C 95.875 150.255,88.900 153.498,84.500 155.523 C 80.100 157.549,72.225 161.211,67.000 163.661 C 51.232 171.054,47.820 172.648,40.000 176.278 C 35.875 178.193,28.572 181.613,23.771 183.880 C 18.969 186.146,14.666 188.000,14.208 188.000 C 13.749 188.000,12.052 189.380,10.437 191.066 C 5.316 196.411,6.160 203.460,13.815 219.282 C 17.217 226.312,20.000 232.266,20.000 232.512 C 20.000 232.890,26.314 246.424,33.990 262.500 C 41.873 279.010,48.000 292.135,48.000 292.512 C 48.000 292.759,50.722 298.707,54.048 305.731 C 72.609 344.916,70.901 343.965,99.000 330.761 C 108.870 326.123,119.784 321.027,129.000 316.753 C 132.575 315.095,139.100 312.056,143.500 310.000 C 147.900 307.944,154.650 304.806,158.500 303.027 C 162.350 301.248,169.100 298.086,173.500 296.000 C 177.900 293.914,184.650 290.753,188.500 288.974 C 192.350 287.196,200.127 283.549,205.783 280.870 C 211.439 278.192,216.268 276.000,216.514 276.000 C 216.760 276.000,222.707 273.265,229.731 269.923 C 236.754 266.580,244.750 262.785,247.500 261.488 C 250.250 260.192,257.804 256.627,264.286 253.566 C 270.769 250.505,276.273 248.000,276.517 248.000 C 276.891 248.000,290.480 241.660,306.500 234.010 C 323.010 226.127,336.135 220.000,336.512 220.000 C 336.759 220.000,342.707 217.275,349.731 213.945 C 356.754 210.615,364.750 206.830,367.500 205.535 C 370.250 204.240,376.550 201.274,381.500 198.943 C 396.940 191.672,399.146 186.685,392.882 173.208 C 391.167 169.519,387.542 161.775,384.827 156.000 C 376.266 137.790,372.909 130.601,364.984 113.500 C 363.455 110.200,359.883 102.550,357.047 96.500 C 354.211 90.450,350.836 83.250,349.547 80.500 C 348.258 77.750,345.543 71.900,343.513 67.500 C 335.795 50.765,334.655 48.922,330.790 46.921 C 326.680 44.793,322.787 44.568,319.000 46.238 M323.869 89.342 C 325.426 91.219,324.276 92.000,319.956 92.000 C 316.210 92.000,313.304 94.065,314.448 95.915 C 314.820 96.517,317.560 96.686,321.299 96.337 C 328.581 95.657,331.367 98.212,329.410 103.775 C 327.923 108.005,318.967 110.952,315.018 108.511 C 312.693 107.074,315.937 105.182,319.831 105.704 C 323.916 106.252,326.700 104.265,325.656 101.546 C 325.201 100.360,323.800 100.187,318.573 100.675 C 312.213 101.269,312.035 101.221,311.052 98.638 C 308.616 92.229,319.633 84.238,323.869 89.342 M305.522 101.021 C 312.380 107.463,307.420 120.000,298.014 120.000 C 295.211 120.000,289.339 114.200,288.415 110.519 C 286.100 101.294,298.491 94.415,305.522 101.021 M294.750 103.392 C 290.969 106.262,294.536 116.000,299.368 116.000 C 302.667 116.000,304.000 114.104,304.000 109.415 C 304.000 103.432,298.992 100.172,294.750 103.392 M281.316 109.797 C 283.750 112.486,288.000 120.847,288.000 122.946 C 288.000 127.407,285.146 125.690,281.729 119.175 C 275.861 107.987,269.258 110.498,274.402 121.961 C 275.923 125.350,276.919 128.770,276.615 129.561 C 275.568 132.289,273.267 130.989,271.638 126.750 C 269.098 120.143,265.554 116.246,263.317 117.602 C 260.600 119.250,260.640 121.937,263.476 128.350 C 268.328 139.321,263.820 138.971,258.610 127.972 C 254.704 119.726,254.495 116.373,257.943 117.275 C 259.145 117.589,260.699 116.885,262.105 115.388 C 263.567 113.832,265.468 113.000,267.559 113.000 C 269.881 113.000,271.224 112.307,272.408 110.500 C 274.382 107.488,278.904 107.131,281.316 109.797 M251.745 126.855 C 254.709 130.348,254.866 130.076,247.961 133.442 C 241.154 136.761,240.309 139.288,245.830 139.819 C 248.355 140.062,249.710 139.526,251.524 137.569 C 254.377 134.490,256.009 134.249,255.287 137.012 C 253.203 144.980,242.430 146.211,237.646 139.027 C 230.907 128.905,243.937 117.655,251.745 126.855 M230.526 135.509 C 236.182 146.965,236.873 150.723,233.144 149.748 C 232.041 149.459,230.841 150.025,230.125 151.171 C 225.396 158.743,214.000 152.027,214.000 141.668 C 214.000 138.631,217.445 135.061,221.077 134.335 C 224.167 133.717,224.692 132.161,222.923 128.856 C 221.774 126.709,222.314 124.000,223.891 124.000 C 224.415 124.000,227.401 129.179,230.526 135.509 M241.250 127.662 C 240.563 127.940,240.000 129.310,240.000 130.708 C 240.000 133.327,244.849 133.551,247.352 131.048 C 249.879 128.521,245.351 126.008,241.250 127.662 M219.477 139.394 C 216.848 143.407,220.801 151.000,225.520 151.000 C 227.578 151.000,230.180 146.155,229.438 143.704 C 227.596 137.626,222.174 135.279,219.477 139.394 M209.656 146.913 C 213.133 150.857,212.926 158.281,209.250 161.516 C 199.975 169.680,186.808 157.100,194.022 146.969 C 197.297 142.369,205.625 142.339,209.656 146.913 M197.750 148.080 C 195.473 149.406,195.486 154.820,197.772 157.605 C 201.745 162.445,208.000 161.255,208.000 155.660 C 208.000 149.266,202.586 145.263,197.750 148.080 M183.466 154.421 C 192.370 158.142,192.379 173.000,183.477 173.000 C 179.481 173.000,178.820 175.269,181.586 179.491 C 183.233 182.004,182.804 184.000,180.618 184.000 C 179.305 184.000,177.598 180.910,171.580 167.642 C 167.911 159.555,167.814 157.457,171.146 158.328 C 172.421 158.661,173.584 158.039,174.609 156.473 C 175.458 155.177,176.906 153.918,177.827 153.675 C 178.747 153.431,179.627 153.180,179.782 153.116 C 179.937 153.052,181.595 153.640,183.466 154.421 M176.629 158.514 C 173.259 161.884,176.390 171.000,180.918 171.000 C 183.106 171.000,186.000 167.938,186.000 165.622 C 186.000 163.390,183.211 158.000,182.056 158.000 C 181.565 158.000,180.510 157.749,179.711 157.442 C 178.912 157.136,177.525 157.618,176.629 158.514 M304.961 169.189 C 308.390 172.870,305.019 185.908,300.618 185.985 C 299.806 185.999,300.014 183.760,301.603 175.349 C 302.692 169.581,295.500 169.460,292.925 175.202 C 290.920 179.674,288.992 179.986,289.033 175.833 C 289.110 168.136,299.819 163.669,304.961 169.189 M152.179 169.750 C 160.208 174.453,159.498 186.572,151.046 189.104 C 138.907 192.741,131.961 175.215,143.321 169.613 C 147.399 167.602,148.542 167.620,152.179 169.750 M143.655 173.829 C 141.405 176.315,141.575 180.190,144.073 183.365 C 148.523 189.023,155.232 185.056,153.122 178.014 C 151.392 172.240,146.893 170.251,143.655 173.829 M129.062 179.033 C 132.289 180.760,138.711 194.443,136.838 195.600 C 135.001 196.735,133.292 195.107,130.473 189.535 C 127.158 182.982,126.721 182.602,123.443 183.425 C 120.392 184.191,120.401 184.846,123.580 192.792 C 127.867 203.509,124.334 204.321,119.089 193.825 C 113.838 183.315,107.817 187.570,112.465 198.506 C 114.763 203.912,115.047 205.353,113.951 206.030 C 111.960 207.261,111.489 206.701,107.571 198.447 C 103.226 189.294,103.126 188.000,106.759 188.000 C 108.436 188.000,110.009 187.215,110.768 186.000 C 111.517 184.801,113.114 183.993,114.758 183.982 C 116.266 183.972,119.480 182.622,121.900 180.982 C 126.939 177.567,126.531 177.679,129.062 179.033 M286.750 186.289 C 290.083 189.340,289.585 190.384,283.250 193.624 C 276.674 196.987,275.785 199.336,280.903 199.825 C 283.528 200.075,284.852 199.561,286.693 197.575 C 289.338 194.723,291.000 194.267,291.000 196.394 C 291.000 203.050,279.581 206.304,274.573 201.076 C 265.375 191.475,276.997 177.362,286.750 186.289 M260.367 188.515 C 260.687 189.348,262.198 190.527,263.724 191.134 C 265.280 191.753,265.950 192.442,265.250 192.703 C 262.433 193.748,267.294 205.320,270.951 206.277 C 273.776 207.016,273.521 208.831,270.487 209.593 C 267.217 210.413,265.778 209.111,262.460 202.328 C 260.956 199.255,258.977 196.545,258.060 196.306 C 256.684 195.946,255.896 189.792,256.901 187.250 C 257.268 186.321,259.893 187.279,260.367 188.515 M276.200 188.200 C 274.577 189.823,274.677 193.000,276.351 193.000 C 279.099 193.000,284.000 190.763,284.000 189.509 C 284.000 187.054,278.302 186.098,276.200 188.200 M307.824 190.336 C 308.236 192.461,305.087 193.758,303.956 191.929 C 302.983 190.354,304.738 187.746,306.400 188.300 C 307.005 188.501,307.646 189.417,307.824 190.336 M99.481 196.750 C 106.613 203.871,104.787 212.368,95.590 214.864 C 85.416 217.625,78.399 201.387,87.396 195.900 C 91.899 193.154,96.182 193.455,99.481 196.750 M254.305 197.353 C 254.591 198.097,253.964 199.443,252.912 200.343 C 250.441 202.459,250.499 204.965,253.162 211.155 C 254.938 215.283,255.081 216.332,253.960 217.025 C 251.887 218.306,251.141 217.421,247.427 209.271 C 243.245 200.093,243.112 198.597,246.535 199.252 C 248.324 199.593,249.365 199.186,250.071 197.868 C 251.237 195.688,253.558 195.406,254.305 197.353 M73.894 199.885 C 77.613 202.745,75.776 204.241,69.506 203.458 C 58.927 202.136,56.519 213.577,65.877 220.701 C 69.570 223.512,76.000 220.831,76.000 216.478 C 76.000 213.615,79.777 211.021,81.019 213.031 C 82.894 216.064,78.945 222.943,73.802 225.602 C 60.043 232.717,47.971 209.001,60.912 200.280 C 65.020 197.512,70.587 197.342,73.894 199.885 M89.200 199.200 C 85.817 202.583,89.526 212.000,94.242 212.000 C 96.687 212.000,99.899 207.357,99.265 204.738 C 97.989 199.461,92.151 196.249,89.200 199.200 M241.981 212.260 C 243.895 216.242,245.614 219.821,245.802 220.213 C 245.989 220.605,244.873 221.236,243.321 221.615 C 241.769 221.994,239.228 223.361,237.673 224.652 C 234.335 227.425,232.323 227.602,229.829 225.345 C 226.703 222.516,227.513 218.657,232.000 215.000 C 236.359 211.447,237.327 208.000,233.967 208.000 C 232.848 208.000,230.328 209.605,228.367 211.567 C 224.396 215.537,223.578 215.528,224.584 211.523 C 225.439 208.116,230.416 205.006,235.000 205.014 C 238.356 205.019,238.644 205.318,241.981 212.260 M219.263 216.062 C 225.060 227.552,225.688 231.362,221.854 231.806 C 220.399 231.975,218.416 232.987,217.449 234.056 C 212.413 239.621,203.643 233.622,203.555 224.552 C 203.493 218.142,205.155 216.000,210.191 216.000 C 213.282 216.000,213.497 215.439,211.959 211.393 C 210.766 208.254,211.417 205.649,213.251 206.229 C 213.938 206.446,216.643 210.871,219.263 216.062 M234.223 216.557 C 231.701 218.323,231.249 222.498,233.487 223.357 C 235.936 224.297,240.383 219.783,239.561 217.191 C 238.739 214.603,237.263 214.427,234.223 216.557 M44.000 219.942 C 44.000 220.946,43.139 221.992,42.086 222.267 C 39.581 222.922,38.509 219.374,40.822 218.080 C 42.875 216.931,44.000 217.590,44.000 219.942 M208.667 219.667 C 207.157 221.177,208.043 228.043,210.000 230.000 C 213.551 233.551,219.000 231.082,219.000 225.924 C 219.000 221.896,211.175 217.158,208.667 219.667 M199.237 231.636 C 203.094 240.512,203.205 242.548,199.782 241.653 C 198.451 241.305,197.060 241.982,195.589 243.691 C 191.231 248.758,186.646 246.982,182.726 238.708 C 178.983 230.811,178.861 230.145,180.949 229.027 C 182.594 228.147,183.195 228.820,185.865 234.526 C 189.017 241.261,191.120 243.039,193.886 241.308 C 196.415 239.726,196.312 235.873,193.585 229.986 C 191.713 225.946,191.384 224.375,192.288 223.801 C 194.727 222.251,195.571 223.202,199.237 231.636 M47.000 227.453 C 47.000 228.802,46.493 231.019,45.873 232.379 C 45.253 233.740,45.044 236.038,45.407 237.487 C 46.397 241.432,52.030 240.775,53.142 236.585 C 53.863 233.866,55.495 232.051,57.250 232.015 C 57.663 232.007,58.000 233.535,58.000 235.411 C 58.000 242.826,47.139 246.971,42.012 241.513 L 39.676 239.026 41.511 232.763 C 44.006 224.246,47.000 221.350,47.000 227.453 M175.023 233.250 C 175.035 233.938,175.474 240.012,175.998 246.750 C 177.042 260.179,176.384 264.000,173.025 264.000 C 170.708 264.000,170.470 262.821,172.223 260.014 C 173.534 257.915,173.633 258.053,162.144 245.846 C 157.996 241.439,157.412 239.000,160.504 239.000 C 161.266 239.000,163.788 241.025,166.108 243.500 C 171.775 249.546,172.410 249.303,171.600 241.399 C 171.142 236.934,171.299 234.344,172.084 233.399 C 173.525 231.663,174.993 231.589,175.023 233.250 M154.140 248.687 C 159.563 254.015,164.000 258.688,164.000 259.071 C 164.000 260.945,159.406 260.791,157.337 258.847 L 155.120 256.764 150.606 258.949 C 146.331 261.018,144.578 263.308,145.215 265.989 C 145.372 266.648,144.700 267.707,143.722 268.343 C 141.063 270.073,140.048 267.705,139.931 259.500 C 139.876 255.650,139.505 249.887,139.107 246.693 C 138.516 241.960,138.671 240.717,139.941 239.973 C 142.949 238.213,144.360 239.079,154.140 248.687 M144.000 250.878 C 144.000 256.469,146.219 257.754,150.487 254.633 C 152.289 253.316,152.267 253.179,149.910 250.883 C 144.124 245.247,144.000 245.247,144.000 250.878 " stroke="none" fill-rule="evenodd" style="fill: rgb(255, 0, 0);"/>
  </g>
</svg>