<svg xmlns="http://www.w3.org/2000/svg" viewBox="0 0 750 750"><defs><style>.cls-1,.cls-3{fill:#1d1d1b;}.cls-2{fill:#fff;}.cls-3{font-size:55px;font-family:HelveticaNeue-Light, Helvetica Neue;}</style></defs><title>Recurso 1</title><g id="Capa_2" data-name="Capa 2"><g id="logos"><g id="_logodele_" data-name="&lt;logodele&gt;"><circle id="_Trazado_" data-name="&lt;Trazado&gt;" class="cls-1" cx="375" cy="375" r="375"/><circle id="_Trazado_2" data-name="&lt;Trazado&gt;" class="cls-2" cx="375" cy="375" r="370"/><circle id="_Trazado_3" data-name="&lt;Trazado&gt;" class="cls-1" cx="375" cy="375" r="300"/><rect id="_Rectángulo_" data-name="&lt;Rectángulo&gt;" class="cls-2" x="125.66" y="228.71" width="292" height="87"/><rect id="_Rectángulo_2" data-name="&lt;Rectángulo&gt;" class="cls-2" x="125.66" y="331.5" width="292" height="87"/><rect id="_Rectángulo_3" data-name="&lt;Rectángulo&gt;" class="cls-2" x="125.66" y="433.22" width="292" height="87"/><rect id="_Rectángulo_4" data-name="&lt;Rectángulo&gt;" class="cls-2" x="382.38" y="381.97" width="189.5" height="87" transform="translate(51.68 902.61) rotate(-90)"/><rect id="_Rectángulo_5" data-name="&lt;Rectángulo&gt;" class="cls-2" x="485.74" y="381.97" width="189.5" height="87" transform="translate(155.03 1005.96) rotate(-90)"/><rect id="_Rectángulo_6" data-name="&lt;Rectángulo&gt;" class="cls-2" x="433.63" y="228.71" width="87" height="87"/><rect id="_Rectángulo_7" data-name="&lt;Rectángulo&gt;" class="cls-2" x="536.99" y="228.71" width="87" height="87"/><text class="cls-3" transform="translate(215.69 692.74) rotate(24.03)">V</text><text class="cls-3" transform="matrix(0.95, 0.32, -0.32, 0.95, 245.94, 706.26)">A</text><text class="cls-3" transform="matrix(0.98, 0.22, -0.22, 0.98, 282.61, 718.17)">L</text><text class="cls-3" transform="translate(314.67 725.2) rotate(7.33)">L</text><text class="cls-3" transform="translate(347.72 729.38) rotate(1.58)">A</text><text class="cls-3" transform="translate(387.02 730.3) rotate(-4.92)">D</text><text class="cls-3" transform="translate(429.93 726.36) rotate(-12.12)">O</text><text class="cls-3" transform="translate(474.11 716.29) rotate(-18.57)">L</text><text class="cls-3" transform="translate(503.33 706.14) rotate(-22.19)">I</text><text class="cls-3" transform="matrix(0.89, -0.45, 0.45, 0.89, 516.92, 701.03)">D</text><text class="cls-3" transform="matrix(0.49, -0.87, 0.87, 0.49, 91.06, 237.16)">D</text><text class="cls-3" transform="matrix(0.58, -0.81, 0.81, 0.58, 109.13, 205.22)">E</text><text class="cls-3" transform="translate(127.6 179.44) rotate(-48.97)">L</text><text class="cls-3" transform="translate(146.35 157.72) rotate(-43.51)">E</text><text class="cls-3" transform="translate(169.06 135.77) rotate(-37.06)">G</text><text class="cls-3" transform="matrix(0.86, -0.51, 0.51, 0.86, 200.83, 111.92)">A</text><text class="cls-3" transform="translate(229.74 94.74) rotate(-23.91)">C</text><text class="cls-3" transform="translate(264.65 79.81) rotate(-19.39)">I</text><text class="cls-3" transform="matrix(0.97, -0.25, 0.25, 0.97, 275.27, 75.42)">Ó</text><text class="cls-3" transform="translate(313.63 65.37) rotate(-7.62)">N</text><text class="cls-3" transform="matrix(1, -0.05, 0.05, 1, 351.28, 60.79)"> </text><text class="cls-3" transform="translate(366.02 60.13) rotate(-0.93)"> </text><text class="cls-3" transform="translate(380.67 59.49) rotate(4.39)">D</text><text class="cls-3" transform="translate(417.27 62.38) rotate(10.6)">E</text><text class="cls-3" transform="matrix(0.97, 0.26, -0.26, 0.97, 448.57, 68.54)"> </text><text class="cls-3" transform="matrix(0.95, 0.3, -0.3, 0.95, 462.94, 72.34)"> </text><text class="cls-3" transform="translate(476.95 76.36) rotate(22.02)">A</text><text class="cls-3" transform="translate(508.21 89.09) rotate(27.71)">L</text><text class="cls-3" transform="translate(533.64 102.15) rotate(33.65)">U</text><text class="cls-3" transform="translate(564.25 122.16) rotate(40.94)">M</text><text class="cls-3" transform="translate(597.38 151.07) rotate(48.3)">N</text><text class="cls-3" transform="matrix(0.57, 0.82, -0.82, 0.57, 622.53, 179.1)">O</text><text class="cls-3" transform="matrix(0.47, 0.88, -0.88, 0.47, 645.03, 211.79)">S</text></g></g></g></svg>